<?xml version="1.0" encoding="utf-8"?>
<!-- Generator: Adobe Illustrator 24.1.0, SVG Export Plug-In . SVG Version: 6.00 Build 0)  -->
<svg version="1.1" id="图层_1" xmlns="http://www.w3.org/2000/svg" xmlns:xlink="http://www.w3.org/1999/xlink" x="0px" y="0px"
	 viewBox="0 0 82 96" style="enable-background:new 0 0 82 96;" xml:space="preserve">
<style type="text/css">
	.st0{fill-rule:evenodd;clip-rule:evenodd;fill:#D4DFFF;}
	.st1{fill-rule:evenodd;clip-rule:evenodd;fill:#88A4EE;}
	.st2{fill-rule:evenodd;clip-rule:evenodd;fill:#9FB6F1;}
	.st3{fill-rule:evenodd;clip-rule:evenodd;fill:#B8C9FF;}
	.st4{fill-rule:evenodd;clip-rule:evenodd;fill:#B8C9F5;}
	.st5{fill-rule:evenodd;clip-rule:evenodd;fill:#93A1DE;}
	.st6{fill-rule:evenodd;clip-rule:evenodd;fill:#1531AA;}
	.st7{fill-rule:evenodd;clip-rule:evenodd;fill:#2A53D3;}
</style>
<g id="页面-1">
	<g id="画板备份" transform="translate(-1082.000000, -408.000000)">
		<g id="编组" transform="translate(1082.000000, 408.000000)">
			<polygon id="Fill-1" class="st0" points="0,78.8 29.2,95.6 29.4,64.1 16.3,56.1 8.4,36 0,30.9 			"/>
			<polygon id="Fill-2" class="st1" points="53.5,20.7 53.5,53.4 78.4,67.1 78.5,35.2 			"/>
			<polygon id="Fill-3" class="st2" points="60.7,5.4 68.5,25.6 16.3,56.1 8.4,36 			"/>
			<polygon id="Fill-4" class="st3" points="16.3,56.1 29.4,64.1 81.5,33.6 68.5,25.6 			"/>
			<polygon id="Fill-5" class="st3" points="52.2,0 0,30.9 8.3,36 60.7,5.4 			"/>
			<polygon id="Fill-6" class="st1" points="69.6,38 69.6,36.4 35.8,56.1 27.4,51 27.4,52.5 35.8,57.7 			"/>
			<polygon id="Fill-7" class="st4" points="69.6,36.4 61.1,31.3 27.4,51 35.8,56.1 			"/>
			<polygon id="Fill-8" class="st5" points="29.4,64.1 29.2,95.6 32.1,94.1 32.2,66.1 78.4,39 78.4,67.1 81.4,65.2 81.5,33.6 			"/>
			<g transform="translate(12.868526, 9.621594)">
				<path id="Fill-9" class="st6" d="M43.7,26.2c-0.4,0-0.7,0.2-0.7,0.4c0,0.2,0.3,0.4,0.7,0.4c0.4,0,0.7-0.2,0.7-0.4
					C44.5,26.4,44.2,26.2,43.7,26.2"/>
				<path id="Fill-11" class="st6" d="M41.7,27.4c-0.4,0-0.7,0.2-0.7,0.4c0,0.2,0.3,0.4,0.7,0.4c0.4,0,0.7-0.2,0.7-0.4
					C42.4,27.6,42.1,27.4,41.7,27.4"/>
				<path id="Fill-13" class="st6" d="M39.6,28.6c-0.4,0-0.7,0.2-0.7,0.4c0,0.2,0.3,0.4,0.7,0.4c0.4,0,0.7-0.2,0.7-0.4
					C40.4,28.8,40,28.6,39.6,28.6"/>
				<path id="Fill-15" class="st6" d="M37.5,29.8c-0.4,0-0.7,0.2-0.7,0.4c0,0.2,0.3,0.4,0.7,0.4c0.4,0,0.7-0.2,0.7-0.4
					C38.3,29.9,38,29.8,37.5,29.8"/>
				<path id="Fill-17" class="st6" d="M35.5,31c-0.4,0-0.7,0.2-0.7,0.4c0,0.2,0.3,0.4,0.7,0.4c0.4,0,0.7-0.2,0.7-0.4
					C36.2,31.1,35.9,31,35.5,31"/>
				<path id="Fill-19" class="st6" d="M33.4,32.1c-0.4,0-0.7,0.2-0.7,0.4c0,0.2,0.3,0.4,0.7,0.4c0.4,0,0.7-0.2,0.7-0.4
					C34.2,32.3,33.8,32.1,33.4,32.1"/>
				<path id="Fill-21" class="st6" d="M31.3,33.3c-0.4,0-0.7,0.2-0.7,0.4c0,0.2,0.3,0.4,0.7,0.4s0.7-0.2,0.7-0.4
					C32.1,33.5,31.8,33.3,31.3,33.3"/>
				<path id="Fill-23" class="st6" d="M29.3,34.5c-0.4,0-0.7,0.2-0.7,0.4c0,0.2,0.3,0.4,0.7,0.4s0.7-0.2,0.7-0.4
					C30,34.7,29.7,34.5,29.3,34.5"/>
				<path id="Fill-25" class="st6" d="M27.2,35.7c-0.4,0-0.7,0.2-0.7,0.4c0,0.2,0.3,0.4,0.7,0.4c0.4,0,0.7-0.2,0.7-0.4
					C28,35.9,27.6,35.7,27.2,35.7"/>
				<path id="Fill-27" class="st6" d="M25.1,36.9c-0.4,0-0.7,0.2-0.7,0.4c0,0.2,0.3,0.4,0.7,0.4s0.7-0.2,0.7-0.4
					C25.9,37.1,25.6,36.9,25.1,36.9"/>
				<path id="Fill-29" class="st6" d="M23.1,38.1c-0.4,0-0.7,0.2-0.7,0.4c0,0.2,0.3,0.4,0.7,0.4c0.4,0,0.7-0.2,0.7-0.4
					C23.8,38.3,23.5,38.1,23.1,38.1"/>
				<path id="Fill-31" class="st6" d="M46.1,27.6c-0.4,0-0.7,0.2-0.7,0.4c0,0.2,0.3,0.4,0.7,0.4c0.4,0,0.7-0.2,0.7-0.4
					C46.9,27.8,46.5,27.6,46.1,27.6"/>
				<path id="Fill-33" class="st6" d="M44.1,28.8c-0.4,0-0.7,0.2-0.7,0.4c0,0.2,0.3,0.4,0.7,0.4s0.7-0.2,0.7-0.4
					C44.8,29,44.5,28.8,44.1,28.8"/>
				<path id="Fill-35" class="st6" d="M42,30c-0.4,0-0.7,0.2-0.7,0.4c0,0.2,0.3,0.4,0.7,0.4c0.4,0,0.7-0.2,0.7-0.4
					C42.7,30.2,42.4,30,42,30"/>
				<path id="Fill-37" class="st6" d="M39.9,31.2c-0.4,0-0.7,0.2-0.7,0.4c0,0.2,0.3,0.4,0.7,0.4c0.4,0,0.7-0.2,0.7-0.4
					C40.7,31.3,40.3,31.2,39.9,31.2"/>
				<path id="Fill-39" class="st6" d="M31.7,35.9c-0.4,0-0.7,0.2-0.7,0.4c0,0.2,0.3,0.4,0.7,0.4c0.4,0,0.7-0.2,0.7-0.4
					C32.4,36.1,32.1,35.9,31.7,35.9"/>
				<path id="Fill-41" class="st6" d="M29.6,37.1c-0.4,0-0.7,0.2-0.7,0.4c0,0.2,0.3,0.4,0.7,0.4s0.7-0.2,0.7-0.4
					C30.3,37.3,30,37.1,29.6,37.1"/>
				<path id="Fill-43" class="st6" d="M27.5,38.3c-0.4,0-0.7,0.2-0.7,0.4c0,0.2,0.3,0.4,0.7,0.4s0.7-0.2,0.7-0.4
					C28.3,38.5,27.9,38.3,27.5,38.3"/>
				<path id="Fill-45" class="st6" d="M25.5,39.5c-0.4,0-0.7,0.2-0.7,0.4c0,0.2,0.3,0.4,0.7,0.4s0.7-0.2,0.7-0.4
					C26.2,39.7,25.9,39.5,25.5,39.5"/>
				<path id="Fill-47" class="st6" d="M48.5,29c-0.4,0-0.7,0.2-0.7,0.4c0,0.2,0.3,0.4,0.7,0.4c0.4,0,0.7-0.2,0.7-0.4
					C49.2,29.2,48.9,29,48.5,29"/>
				<path id="Fill-49" class="st6" d="M46.4,30.2c-0.4,0-0.7,0.2-0.7,0.4c0,0.2,0.3,0.4,0.7,0.4c0.4,0,0.7-0.2,0.7-0.4
					C47.2,30.4,46.8,30.2,46.4,30.2"/>
				<path id="Fill-51" class="st6" d="M44.4,31.4c-0.4,0-0.7,0.2-0.7,0.4c0,0.2,0.3,0.4,0.7,0.4c0.4,0,0.7-0.2,0.7-0.4
					C45.1,31.5,44.8,31.4,44.4,31.4"/>
				<path id="Fill-53" class="st6" d="M47.9,23.8c-0.4,0-0.7,0.2-0.7,0.4c0,0.2,0.3,0.4,0.7,0.4c0.4,0,0.7-0.2,0.7-0.4
					C48.6,24,48.3,23.8,47.9,23.8"/>
				<path id="Fill-55" class="st6" d="M45.8,25c-0.4,0-0.7,0.2-0.7,0.4c0,0.2,0.3,0.4,0.7,0.4c0.4,0,0.7-0.2,0.7-0.4
					C46.6,25.2,46.2,25,45.8,25"/>
				<path id="Fill-57" class="st6" d="M50.2,25.2c-0.4,0-0.7,0.2-0.7,0.4c0,0.2,0.3,0.4,0.7,0.4c0.4,0,0.7-0.2,0.7-0.4
					C51,25.4,50.7,25.2,50.2,25.2"/>
				<path id="Fill-59" class="st6" d="M48.2,26.4c-0.4,0-0.7,0.2-0.7,0.4c0,0.2,0.3,0.4,0.7,0.4c0.4,0,0.7-0.2,0.7-0.4
					C48.9,26.6,48.6,26.4,48.2,26.4"/>
				<path id="Fill-61" class="st6" d="M52.6,26.6c-0.4,0-0.7,0.2-0.7,0.4c0,0.2,0.3,0.4,0.7,0.4c0.4,0,0.7-0.2,0.7-0.4
					C53.4,26.8,53,26.6,52.6,26.6"/>
				<path id="Fill-63" class="st6" d="M50.6,27.8c-0.4,0-0.7,0.2-0.7,0.4c0,0.2,0.3,0.4,0.7,0.4s0.7-0.2,0.7-0.4
					C51.3,28,51,27.8,50.6,27.8"/>
				<path id="Fill-65" class="st6" d="M42.3,32.5c-0.4,0-0.7,0.2-0.7,0.4s0.3,0.4,0.7,0.4c0.4,0,0.7-0.2,0.7-0.4
					S42.7,32.5,42.3,32.5"/>
				<path id="Fill-67" class="st6" d="M37.2,32.9c-1.8,0-3.3,0.8-3.3,1.8c0,1,1.5,1.8,3.3,1.8c1.8,0,3.3-0.8,3.3-1.8
					C40.5,33.7,39.1,32.9,37.2,32.9"/>
				<path id="Fill-69" class="st6" d="M34,37.3c-0.4,0-0.7,0.2-0.7,0.4c0,0.2,0.3,0.4,0.7,0.4c0.4,0,0.7-0.2,0.7-0.4
					C34.8,37.5,34.4,37.3,34,37.3"/>
				<path id="Fill-71" class="st6" d="M32,38.5c-0.4,0-0.7,0.2-0.7,0.4c0,0.2,0.3,0.4,0.7,0.4s0.7-0.2,0.7-0.4
					C32.7,38.7,32.4,38.5,32,38.5"/>
				<path id="Fill-73" class="st6" d="M29.9,39.7c-0.4,0-0.7,0.2-0.7,0.4c0,0.2,0.3,0.4,0.7,0.4s0.7-0.2,0.7-0.4
					C30.6,39.9,30.3,39.7,29.9,39.7"/>
				<path id="Fill-75" class="st6" d="M27.8,40.9c-0.4,0-0.7,0.2-0.7,0.4c0,0.2,0.3,0.4,0.7,0.4s0.7-0.2,0.7-0.4
					C28.6,41.1,28.2,40.9,27.8,40.9"/>
				<path id="Fill-77" class="st6" d="M21,39.3c-0.4,0-0.7,0.2-0.7,0.4c0,0.2,0.3,0.4,0.7,0.4s0.7-0.2,0.7-0.4
					C21.8,39.5,21.4,39.3,21,39.3"/>
				<path id="Fill-79" class="st6" d="M18.9,40.5c-0.4,0-0.7,0.2-0.7,0.4c0,0.2,0.3,0.4,0.7,0.4s0.7-0.2,0.7-0.4
					C19.7,40.7,19.4,40.5,18.9,40.5"/>
				<path id="Fill-81" class="st6" d="M23.4,40.7c-0.4,0-0.7,0.2-0.7,0.4c0,0.2,0.3,0.4,0.7,0.4s0.7-0.2,0.7-0.4
					C24.1,40.9,23.8,40.7,23.4,40.7"/>
				<path id="Fill-83" class="st6" d="M21.3,41.9c-0.4,0-0.7,0.2-0.7,0.4c0,0.2,0.3,0.4,0.7,0.4s0.7-0.2,0.7-0.4
					C22.1,42.1,21.7,41.9,21.3,41.9"/>
				<path id="Fill-85" class="st6" d="M25.8,42.1c-0.4,0-0.7,0.2-0.7,0.4c0,0.2,0.3,0.4,0.7,0.4c0.4,0,0.7-0.2,0.7-0.4
					C26.5,42.3,26.2,42.1,25.8,42.1"/>
				<path id="Fill-87" class="st6" d="M23.7,43.3c-0.4,0-0.7,0.2-0.7,0.4c0,0.2,0.3,0.4,0.7,0.4s0.7-0.2,0.7-0.4
					C24.4,43.4,24.1,43.3,23.7,43.3"/>
				<polygon id="Fill-89" class="st6" points="14.1,37.1 12.3,38.2 6.6,41.5 4.1,35.4 2.3,30.7 0.7,26.6 3.5,25 6.8,23.1 8.4,22.1 
					13.1,34.4 				"/>
				<polygon id="Fill-91" class="st6" points="41.5,21.2 32.8,26.3 27.3,29.5 16.7,35.6 16,34 14.2,29.2 10.9,20.6 16.7,17.2 
					20,15.3 31.8,8.5 35.7,6.2 36.6,8.4 				"/>
				<polygon id="Fill-93" class="st6" points="51,15.7 46.1,18.5 44,19.7 43.4,18 38.3,4.6 45.2,0.6 46.4,3.8 48.2,8.6 				"/>
				<polygon id="Fill-95" class="st7" points="6.8,23.1 4.1,35.4 2.3,30.7 3.5,25 				"/>
				<polygon id="Fill-97" class="st7" points="48.2,8.6 46.1,18.5 44,19.7 43.4,18 46.4,3.8 				"/>
				<polygon id="Fill-99" class="st7" points="20,15.3 16,34 14.2,29.2 16.7,17.2 				"/>
				<polygon id="Fill-101" class="st7" points="36.6,8.4 32.8,26.3 27.3,29.5 31.8,8.5 35.7,6.2 				"/>
			</g>
		</g>
	</g>
</g>
</svg>
