<?xml version="1.0" encoding="utf-8"?>
<!-- Generator: Adobe Illustrator 24.1.0, SVG Export Plug-In . SVG Version: 6.00 Build 0)  -->
<svg version="1.1" id="图层_1" xmlns="http://www.w3.org/2000/svg" xmlns:xlink="http://www.w3.org/1999/xlink" x="0px" y="0px"
	 viewBox="0 0 135 129" style="enable-background:new 0 0 135 129;" xml:space="preserve">
<style type="text/css">
	.st0{fill-rule:evenodd;clip-rule:evenodd;fill:#D4DFFF;}
	.st1{fill-rule:evenodd;clip-rule:evenodd;fill:#88A4EE;}
	.st2{fill-rule:evenodd;clip-rule:evenodd;fill:#9FB6F1;}
	.st3{fill-rule:evenodd;clip-rule:evenodd;fill:#B8C9FF;}
	.st4{fill-rule:evenodd;clip-rule:evenodd;fill:#B8C9F5;}
	.st5{fill-rule:evenodd;clip-rule:evenodd;fill:#93A1DE;}
	.st6{fill-rule:evenodd;clip-rule:evenodd;fill:#1531AA;}
	.st7{fill-rule:evenodd;clip-rule:evenodd;fill:#2A53D3;}
	.st8{filter:url(#Adobe_OpacityMaskFilter);}
	.st9{fill-rule:evenodd;clip-rule:evenodd;fill:#FFFFFF;}
	.st10{mask:url(#mask-2_1_);fill-rule:evenodd;clip-rule:evenodd;fill:#B8C9FF;}
	.st11{filter:url(#Adobe_OpacityMaskFilter_1_);}
	.st12{mask:url(#mask-4_1_);fill-rule:evenodd;clip-rule:evenodd;fill:#93A1DE;}
</style>
<g id="页面-1">
	<g id="画板备份" transform="translate(-879.000000, -586.000000)">
		<g id="编组" transform="translate(879.728055, 586.472906)">
			<polygon id="Fill-1" class="st0" points="65.1,56 73,35.9 81.4,30.8 81.4,78.6 52.2,95.4 52,63.9 			"/>
			<polygon id="Fill-2" class="st1" points="16.1,27.2 28.3,53 3.1,66.9 3.1,35.1 			"/>
			<polygon id="Fill-3" class="st2" points="20.8,5.4 13,25.6 65.1,56 73,35.9 			"/>
			<polygon id="Fill-4" class="st3" points="0,33.5 52,63.9 65.1,56 13,25.6 			"/>
			<polygon id="Fill-5" class="st3" points="29.2,0 20.8,5.4 73,35.9 81.4,30.8 			"/>
			<polygon id="Fill-6" class="st1" points="11.9,37.9 11.9,36.3 45.6,56 54.1,50.9 54.1,52.4 45.6,57.5 			"/>
			<polygon id="Fill-7" class="st4" points="11.9,36.3 20.4,31.2 54.1,50.8 45.6,56 			"/>
			<polygon id="Fill-8" class="st5" points="0.2,65 3.1,66.9 3.1,39 49.2,66 49.3,93.9 52.2,95.4 52,63.9 0,33.5 			"/>
			<g transform="translate(14.865421, 10.103756)">
				<path id="Fill-9" class="st6" d="M10,25.6c0.4,0,0.7,0.2,0.7,0.4s-0.3,0.4-0.7,0.4S9.3,26.3,9.3,26S9.6,25.6,10,25.6"/>
				<path id="Fill-11" class="st6" d="M12.1,26.8c0.4,0,0.7,0.2,0.7,0.4c0,0.2-0.3,0.4-0.7,0.4s-0.7-0.2-0.7-0.4
					C11.3,27,11.7,26.8,12.1,26.8"/>
				<path id="Fill-13" class="st6" d="M14.1,28c0.4,0,0.7,0.2,0.7,0.4s-0.3,0.4-0.7,0.4s-0.7-0.2-0.7-0.4S13.7,28,14.1,28"/>
				<path id="Fill-15" class="st6" d="M16.2,29.2c0.4,0,0.7,0.2,0.7,0.4c0,0.2-0.3,0.4-0.7,0.4s-0.7-0.2-0.7-0.4
					C15.5,29.4,15.8,29.2,16.2,29.2"/>
				<path id="Fill-17" class="st6" d="M18.3,30.4c0.4,0,0.7,0.2,0.7,0.4c0,0.2-0.3,0.4-0.7,0.4c-0.4,0-0.7-0.2-0.7-0.4
					C17.5,30.6,17.8,30.4,18.3,30.4"/>
				<path id="Fill-19" class="st6" d="M20.3,31.6c0.4,0,0.7,0.2,0.7,0.4c0,0.2-0.3,0.4-0.7,0.4c-0.4,0-0.7-0.2-0.7-0.4
					C19.6,31.7,19.9,31.6,20.3,31.6"/>
				<path id="Fill-21" class="st6" d="M22.4,32.8c0.4,0,0.7,0.2,0.7,0.4c0,0.2-0.3,0.4-0.7,0.4c-0.4,0-0.7-0.2-0.7-0.4
					C21.6,32.9,22,32.8,22.4,32.8"/>
				<path id="Fill-23" class="st6" d="M24.4,33.9c0.4,0,0.7,0.2,0.7,0.4c0,0.2-0.3,0.4-0.7,0.4c-0.4,0-0.7-0.2-0.7-0.4
					C23.7,34.1,24,33.9,24.4,33.9"/>
				<path id="Fill-25" class="st6" d="M26.5,35.1c0.4,0,0.7,0.2,0.7,0.4c0,0.2-0.3,0.4-0.7,0.4c-0.4,0-0.7-0.2-0.7-0.4
					C25.8,35.3,26.1,35.1,26.5,35.1"/>
				<path id="Fill-27" class="st6" d="M28.6,36.3c0.4,0,0.7,0.2,0.7,0.4c0,0.2-0.3,0.4-0.7,0.4c-0.4,0-0.7-0.2-0.7-0.4
					C27.8,36.5,28.2,36.3,28.6,36.3"/>
				<path id="Fill-29" class="st6" d="M30.6,37.5c0.4,0,0.7,0.2,0.7,0.4c0,0.2-0.3,0.4-0.7,0.4c-0.4,0-0.7-0.2-0.7-0.4
					C29.9,37.7,30.2,37.5,30.6,37.5"/>
				<path id="Fill-31" class="st6" d="M7.6,27c0.4,0,0.7,0.2,0.7,0.4c0,0.2-0.3,0.4-0.7,0.4c-0.4,0-0.7-0.2-0.7-0.4
					C6.9,27.2,7.2,27,7.6,27"/>
				<path id="Fill-33" class="st6" d="M9.7,28.2c0.4,0,0.7,0.2,0.7,0.4c0,0.2-0.3,0.4-0.7,0.4S9,28.8,9,28.6
					C9,28.4,9.3,28.2,9.7,28.2"/>
				<path id="Fill-35" class="st6" d="M11.8,29.4c0.4,0,0.7,0.2,0.7,0.4c0,0.2-0.3,0.4-0.7,0.4S11,30,11,29.8
					C11,29.6,11.4,29.4,11.8,29.4"/>
				<path id="Fill-37" class="st6" d="M13.8,30.6c0.4,0,0.7,0.2,0.7,0.4s-0.3,0.4-0.7,0.4s-0.7-0.2-0.7-0.4S13.4,30.6,13.8,30.6"/>
				<path id="Fill-39" class="st6" d="M22.1,35.3c0.4,0,0.7,0.2,0.7,0.4c0,0.2-0.3,0.4-0.7,0.4c-0.4,0-0.7-0.2-0.7-0.4
					C21.3,35.5,21.7,35.3,22.1,35.3"/>
				<path id="Fill-41" class="st6" d="M24.1,36.5c0.4,0,0.7,0.2,0.7,0.4c0,0.2-0.3,0.4-0.7,0.4c-0.4,0-0.7-0.2-0.7-0.4
					C23.4,36.7,23.7,36.5,24.1,36.5"/>
				<path id="Fill-43" class="st6" d="M26.2,37.7c0.4,0,0.7,0.2,0.7,0.4c0,0.2-0.3,0.4-0.7,0.4c-0.4,0-0.7-0.2-0.7-0.4
					C25.5,37.9,25.8,37.7,26.2,37.7"/>
				<path id="Fill-45" class="st6" d="M28.3,38.9c0.4,0,0.7,0.2,0.7,0.4c0,0.2-0.3,0.4-0.7,0.4c-0.4,0-0.7-0.2-0.7-0.4
					C27.5,39.1,27.8,38.9,28.3,38.9"/>
				<path id="Fill-47" class="st6" d="M5.3,28.4c0.4,0,0.7,0.2,0.7,0.4c0,0.2-0.3,0.4-0.7,0.4S4.5,29,4.5,28.8
					C4.5,28.6,4.9,28.4,5.3,28.4"/>
				<path id="Fill-49" class="st6" d="M7.3,29.6c0.4,0,0.7,0.2,0.7,0.4s-0.3,0.4-0.7,0.4S6.6,30.2,6.6,30S6.9,29.6,7.3,29.6"/>
				<path id="Fill-51" class="st6" d="M9.4,30.8c0.4,0,0.7,0.2,0.7,0.4c0,0.2-0.3,0.4-0.7,0.4s-0.7-0.2-0.7-0.4
					C8.7,31,9,30.8,9.4,30.8"/>
				<path id="Fill-53" class="st6" d="M5.9,23.3c0.4,0,0.7,0.2,0.7,0.4c0,0.2-0.3,0.4-0.7,0.4s-0.7-0.2-0.7-0.4
					C5.1,23.4,5.5,23.3,5.9,23.3"/>
				<path id="Fill-55" class="st6" d="M8,24.4c0.4,0,0.7,0.2,0.7,0.4c0,0.2-0.3,0.4-0.7,0.4c-0.4,0-0.7-0.2-0.7-0.4
					C7.2,24.6,7.5,24.4,8,24.4"/>
				<path id="Fill-57" class="st6" d="M3.5,24.6c0.4,0,0.7,0.2,0.7,0.4c0,0.2-0.3,0.4-0.7,0.4s-0.7-0.2-0.7-0.4
					C2.8,24.8,3.1,24.6,3.5,24.6"/>
				<path id="Fill-59" class="st6" d="M5.6,25.8c0.4,0,0.7,0.2,0.7,0.4c0,0.2-0.3,0.4-0.7,0.4s-0.7-0.2-0.7-0.4
					C4.8,26,5.2,25.8,5.6,25.8"/>
				<path id="Fill-61" class="st6" d="M1.2,26c0.4,0,0.7,0.2,0.7,0.4c0,0.2-0.3,0.4-0.7,0.4s-0.7-0.2-0.7-0.4
					C0.4,26.2,0.7,26,1.2,26"/>
				<path id="Fill-63" class="st6" d="M3.2,27.2c0.4,0,0.7,0.2,0.7,0.4C4,27.9,3.6,28,3.2,28s-0.7-0.2-0.7-0.4
					C2.5,27.4,2.8,27.2,3.2,27.2"/>
				<path id="Fill-65" class="st6" d="M11.5,32c0.4,0,0.7,0.2,0.7,0.4c0,0.2-0.3,0.4-0.7,0.4c-0.4,0-0.7-0.2-0.7-0.4
					C10.7,32.2,11,32,11.5,32"/>
				<path id="Fill-67" class="st6" d="M16.5,32.3c1.8,0,3.3,0.8,3.3,1.8S18.3,36,16.5,36s-3.3-0.8-3.3-1.8S14.7,32.3,16.5,32.3"/>
				<path id="Fill-69" class="st6" d="M19.7,36.7c0.4,0,0.7,0.2,0.7,0.4c0,0.2-0.3,0.4-0.7,0.4c-0.4,0-0.7-0.2-0.7-0.4
					C19,36.9,19.3,36.7,19.7,36.7"/>
				<path id="Fill-71" class="st6" d="M21.8,37.9c0.4,0,0.7,0.2,0.7,0.4c0,0.2-0.3,0.4-0.7,0.4c-0.4,0-0.7-0.2-0.7-0.4
					C21,38.1,21.4,37.9,21.8,37.9"/>
				<path id="Fill-73" class="st6" d="M23.8,39.1c0.4,0,0.7,0.2,0.7,0.4c0,0.2-0.3,0.4-0.7,0.4c-0.4,0-0.7-0.2-0.7-0.4
					C23.1,39.3,23.4,39.1,23.8,39.1"/>
				<path id="Fill-75" class="st6" d="M25.9,40.3c0.4,0,0.7,0.2,0.7,0.4c0,0.2-0.3,0.4-0.7,0.4c-0.4,0-0.7-0.2-0.7-0.4
					C25.1,40.5,25.5,40.3,25.9,40.3"/>
				<path id="Fill-77" class="st6" d="M32.7,38.7c0.4,0,0.7,0.2,0.7,0.4c0,0.2-0.3,0.4-0.7,0.4c-0.4,0-0.7-0.2-0.7-0.4
					C31.9,38.9,32.3,38.7,32.7,38.7"/>
				<path id="Fill-79" class="st6" d="M34.7,39.9c0.4,0,0.7,0.2,0.7,0.4c0,0.2-0.3,0.4-0.7,0.4c-0.4,0-0.7-0.2-0.7-0.4
					C34,40.1,34.3,39.9,34.7,39.9"/>
				<path id="Fill-81" class="st6" d="M30.3,40.1c0.4,0,0.7,0.2,0.7,0.4c0,0.2-0.3,0.4-0.7,0.4c-0.4,0-0.7-0.2-0.7-0.4
					C29.6,40.3,29.9,40.1,30.3,40.1"/>
				<path id="Fill-83" class="st6" d="M32.4,41.3c0.4,0,0.7,0.2,0.7,0.4c0,0.2-0.3,0.4-0.7,0.4s-0.7-0.2-0.7-0.4
					C31.6,41.4,32,41.3,32.4,41.3"/>
				<path id="Fill-85" class="st6" d="M27.9,41.5c0.4,0,0.7,0.2,0.7,0.4c0,0.2-0.3,0.4-0.7,0.4c-0.4,0-0.7-0.2-0.7-0.4
					C27.2,41.7,27.5,41.5,27.9,41.5"/>
				<path id="Fill-87" class="st6" d="M30,42.7c0.4,0,0.7,0.2,0.7,0.4c0,0.2-0.3,0.4-0.7,0.4c-0.4,0-0.7-0.2-0.7-0.4
					C29.3,42.8,29.6,42.7,30,42.7"/>
				<polygon id="Fill-89" class="st6" points="39.6,36.5 41.4,37.6 47.1,40.9 49.5,34.8 51.4,30.2 53,26.1 50.2,24.4 46.9,22.5 
					45.3,21.6 40.6,33.9 				"/>
				<polygon id="Fill-91" class="st6" points="12.3,20.7 21,25.7 26.4,28.9 37,35 37.7,33.4 39.5,28.6 42.8,20.1 36.9,16.7 
					33.7,14.8 22,7.9 18,5.6 17.2,7.9 				"/>
				<polygon id="Fill-93" class="st6" points="2.8,15.2 7.7,18 9.7,19.2 10.4,17.4 15.5,4.1 8.6,0.1 7.4,3.3 5.5,8.1 				"/>
				<polygon id="Fill-95" class="st7" points="46.9,22.5 49.5,34.8 51.4,30.2 50.2,24.4 				"/>
				<polygon id="Fill-97" class="st7" points="5.5,8.1 7.7,18 9.7,19.2 10.4,17.4 7.4,3.3 				"/>
				<polygon id="Fill-99" class="st7" points="33.7,14.8 37.7,33.4 39.5,28.6 36.9,16.7 				"/>
				<polygon id="Fill-101" class="st7" points="17.2,7.9 21,25.7 26.4,28.9 22,7.9 18,5.6 				"/>
				<polygon id="Fill-103" class="st0" points="101.9,76.1 109.9,56 118.2,50.9 118.2,98.8 89.1,115.5 88.9,84 				"/>
				<polygon id="Fill-105" class="st1" points="69.9,38.1 69.9,70.6 40,87 39.9,55.2 				"/>
				<polygon id="Fill-107" class="st2" points="57.6,25.5 49.9,45.7 101.9,76.1 109.9,56 				"/>
				<polygon id="Fill-109" class="st3" points="36.9,53.6 49.9,45.7 101.9,76.1 88.9,84 				"/>
				<g transform="translate(57.434581, 20.271029)">
					<defs>
						<filter id="Adobe_OpacityMaskFilter" filterUnits="userSpaceOnUse" x="0.2" y="0" width="60.6" height="35.8">
							<feColorMatrix  type="matrix" values="1 0 0 0 0  0 1 0 0 0  0 0 1 0 0  0 0 0 1 0"/>
						</filter>
					</defs>
					<mask maskUnits="userSpaceOnUse" x="0.2" y="0" width="60.6" height="35.8" id="mask-2_1_">
						<g class="st8">
							<polygon id="path-1_1_" class="st9" points="0.2,0 60.8,0 60.8,35.8 0.2,35.8 							"/>
						</g>
					</mask>
					<polygon id="Fill-111" class="st10" points="0.2,5.2 8.4,0 60.8,30.7 52.5,35.8 					"/>
				</g>
				<polygon id="Fill-113" class="st1" points="48.8,58 48.8,56.5 82.5,76.1 90.9,71 90.9,72.5 82.5,77.7 				"/>
				<polygon id="Fill-115" class="st4" points="48.8,56.5 57.2,51.3 90.9,71 82.5,76.1 				"/>
				<g transform="translate(36.487851, 53.380375)">
					<defs>
						<filter id="Adobe_OpacityMaskFilter_1_" filterUnits="userSpaceOnUse" x="0.4" y="0.3" width="52.2" height="61.9">
							<feColorMatrix  type="matrix" values="1 0 0 0 0  0 1 0 0 0  0 0 1 0 0  0 0 0 1 0"/>
						</filter>
					</defs>
					<mask maskUnits="userSpaceOnUse" x="0.4" y="0.3" width="52.2" height="61.9" id="mask-4_1_">
						<g class="st11">
							<polygon id="path-3_1_" class="st9" points="0.4,0.3 52.6,0.3 52.6,62.2 0.4,62.2 							"/>
						</g>
					</mask>
					<polygon id="Fill-117" class="st12" points="52.4,30.7 52.6,62.2 49.7,60.7 49.6,32.7 3.5,5.7 3.5,33.7 0.5,31.8 0.4,0.3 					
						"/>
				</g>
				<path id="Fill-119" class="st6" d="M61.7,55.9c0.4,0,0.7,0.2,0.7,0.4c0,0.2-0.3,0.4-0.7,0.4S61,56.5,61,56.3
					C61,56,61.3,55.9,61.7,55.9"/>
				<path id="Fill-121" class="st6" d="M63.8,57c0.4,0,0.7,0.2,0.7,0.4c0,0.2-0.3,0.4-0.7,0.4c-0.4,0-0.7-0.2-0.7-0.4
					C63.1,57.2,63.4,57,63.8,57"/>
				<path id="Fill-123" class="st6" d="M65.9,58.2c0.4,0,0.7,0.2,0.7,0.4c0,0.2-0.3,0.4-0.7,0.4s-0.7-0.2-0.7-0.4
					C65.1,58.4,65.5,58.2,65.9,58.2"/>
				<path id="Fill-125" class="st6" d="M67.9,59.4c0.4,0,0.7,0.2,0.7,0.4c0,0.2-0.3,0.4-0.7,0.4c-0.4,0-0.7-0.2-0.7-0.4
					C67.2,59.6,67.5,59.4,67.9,59.4"/>
				<path id="Fill-127" class="st6" d="M70,60.6c0.4,0,0.7,0.2,0.7,0.4c0,0.2-0.3,0.4-0.7,0.4c-0.4,0-0.7-0.2-0.7-0.4
					C69.2,60.8,69.6,60.6,70,60.6"/>
				<path id="Fill-129" class="st6" d="M72,61.8c0.4,0,0.7,0.2,0.7,0.4c0,0.2-0.3,0.4-0.7,0.4s-0.7-0.2-0.7-0.4
					C71.3,62,71.6,61.8,72,61.8"/>
				<path id="Fill-131" class="st6" d="M74.1,63c0.4,0,0.7,0.2,0.7,0.4c0,0.2-0.3,0.4-0.7,0.4c-0.4,0-0.7-0.2-0.7-0.4
					C73.4,63.2,73.7,63,74.1,63"/>
				<path id="Fill-133" class="st6" d="M76.2,64.2c0.4,0,0.7,0.2,0.7,0.4c0,0.2-0.3,0.4-0.7,0.4c-0.4,0-0.7-0.2-0.7-0.4
					C75.4,64.4,75.8,64.2,76.2,64.2"/>
				<path id="Fill-135" class="st6" d="M78.2,65.4c0.4,0,0.7,0.2,0.7,0.4c0,0.2-0.3,0.4-0.7,0.4c-0.4,0-0.7-0.2-0.7-0.4
					C77.5,65.5,77.8,65.4,78.2,65.4"/>
				<path id="Fill-137" class="st6" d="M80.3,66.5c0.4,0,0.7,0.2,0.7,0.4c0,0.2-0.3,0.4-0.7,0.4c-0.4,0-0.7-0.2-0.7-0.4
					C79.5,66.7,79.9,66.5,80.3,66.5"/>
				<path id="Fill-139" class="st6" d="M82.4,67.7c0.4,0,0.7,0.2,0.7,0.4c0,0.2-0.3,0.4-0.7,0.4c-0.4,0-0.7-0.2-0.7-0.4
					C81.6,67.9,81.9,67.7,82.4,67.7"/>
				<path id="Fill-141" class="st6" d="M59.4,57.3c0.4,0,0.7,0.2,0.7,0.4c0,0.2-0.3,0.4-0.7,0.4s-0.7-0.2-0.7-0.4
					C58.6,57.4,59,57.3,59.4,57.3"/>
				<path id="Fill-143" class="st6" d="M61.4,58.4c0.4,0,0.7,0.2,0.7,0.4c0,0.2-0.3,0.4-0.7,0.4c-0.4,0-0.7-0.2-0.7-0.4
					C60.7,58.6,61,58.4,61.4,58.4"/>
				<path id="Fill-145" class="st6" d="M63.5,59.6c0.4,0,0.7,0.2,0.7,0.4c0,0.2-0.3,0.4-0.7,0.4c-0.4,0-0.7-0.2-0.7-0.4
					C62.8,59.8,63.1,59.6,63.5,59.6"/>
				<path id="Fill-147" class="st6" d="M65.6,60.8c0.4,0,0.7,0.2,0.7,0.4c0,0.2-0.3,0.4-0.7,0.4s-0.7-0.2-0.7-0.4
					C64.8,61,65.1,60.8,65.6,60.8"/>
				<path id="Fill-149" class="st6" d="M73.8,65.6c0.4,0,0.7,0.2,0.7,0.4c0,0.2-0.3,0.4-0.7,0.4c-0.4,0-0.7-0.2-0.7-0.4
					C73.1,65.7,73.4,65.6,73.8,65.6"/>
				<path id="Fill-151" class="st6" d="M75.9,66.8c0.4,0,0.7,0.2,0.7,0.4c0,0.2-0.3,0.4-0.7,0.4c-0.4,0-0.7-0.2-0.7-0.4
					C75.1,66.9,75.5,66.8,75.9,66.8"/>
				<path id="Fill-153" class="st6" d="M77.9,67.9c0.4,0,0.7,0.2,0.7,0.4c0,0.2-0.3,0.4-0.7,0.4c-0.4,0-0.7-0.2-0.7-0.4
					C77.2,68.1,77.5,67.9,77.9,67.9"/>
				<path id="Fill-155" class="st6" d="M80,69.1c0.4,0,0.7,0.2,0.7,0.4c0,0.2-0.3,0.4-0.7,0.4c-0.4,0-0.7-0.2-0.7-0.4
					C79.2,69.3,79.6,69.1,80,69.1"/>
				<path id="Fill-157" class="st6" d="M57,58.6c0.4,0,0.7,0.2,0.7,0.4c0,0.2-0.3,0.4-0.7,0.4s-0.7-0.2-0.7-0.4
					C56.3,58.8,56.6,58.6,57,58.6"/>
				<path id="Fill-159" class="st6" d="M59.1,59.8c0.4,0,0.7,0.2,0.7,0.4c0,0.2-0.3,0.4-0.7,0.4c-0.4,0-0.7-0.2-0.7-0.4
					C58.3,60,58.7,59.8,59.1,59.8"/>
				<path id="Fill-161" class="st6" d="M61.1,61c0.4,0,0.7,0.2,0.7,0.4c0,0.2-0.3,0.4-0.7,0.4s-0.7-0.2-0.7-0.4
					C60.4,61.2,60.7,61,61.1,61"/>
				<path id="Fill-163" class="st6" d="M57.6,53.5c0.4,0,0.7,0.2,0.7,0.4c0,0.2-0.3,0.4-0.7,0.4s-0.7-0.2-0.7-0.4
					C56.9,53.7,57.2,53.5,57.6,53.5"/>
				<path id="Fill-165" class="st6" d="M59.7,54.7c0.4,0,0.7,0.2,0.7,0.4c0,0.2-0.3,0.4-0.7,0.4c-0.4,0-0.7-0.2-0.7-0.4
					C58.9,54.9,59.3,54.7,59.7,54.7"/>
				<path id="Fill-167" class="st6" d="M55.3,54.9c0.4,0,0.7,0.2,0.7,0.4c0,0.2-0.3,0.4-0.7,0.4s-0.7-0.2-0.7-0.4
					C54.5,55.1,54.8,54.9,55.3,54.9"/>
				<path id="Fill-169" class="st6" d="M57.3,56.1c0.4,0,0.7,0.2,0.7,0.4c0,0.2-0.3,0.4-0.7,0.4c-0.4,0-0.7-0.2-0.7-0.4
					C56.6,56.2,56.9,56.1,57.3,56.1"/>
				<path id="Fill-171" class="st6" d="M52.9,56.3c0.4,0,0.7,0.2,0.7,0.4c0,0.2-0.3,0.4-0.7,0.4s-0.7-0.2-0.7-0.4
					C52.1,56.5,52.5,56.3,52.9,56.3"/>
				<path id="Fill-173" class="st6" d="M54.9,57.5c0.4,0,0.7,0.2,0.7,0.4c0,0.2-0.3,0.4-0.7,0.4c-0.4,0-0.7-0.2-0.7-0.4
					C54.2,57.6,54.5,57.5,54.9,57.5"/>
				<path id="Fill-175" class="st6" d="M63.2,62.2c0.4,0,0.7,0.2,0.7,0.4c0,0.2-0.3,0.4-0.7,0.4c-0.4,0-0.7-0.2-0.7-0.4
					C62.4,62.4,62.8,62.2,63.2,62.2"/>
				<path id="Fill-177" class="st6" d="M68.2,62.6c1.8,0,3.3,0.8,3.3,1.8c0,1-1.5,1.8-3.3,1.8c-1.8,0-3.3-0.8-3.3-1.8
					C64.9,63.4,66.4,62.6,68.2,62.6"/>
				<path id="Fill-179" class="st6" d="M71.4,67c0.4,0,0.7,0.2,0.7,0.4c0,0.2-0.3,0.4-0.7,0.4c-0.4,0-0.7-0.2-0.7-0.4
					C70.7,67.1,71,67,71.4,67"/>
				<path id="Fill-181" class="st6" d="M73.5,68.1c0.4,0,0.7,0.2,0.7,0.4c0,0.2-0.3,0.4-0.7,0.4c-0.4,0-0.7-0.2-0.7-0.4
					C72.7,68.3,73.1,68.1,73.5,68.1"/>
				<path id="Fill-183" class="st6" d="M75.6,69.3c0.4,0,0.7,0.2,0.7,0.4c0,0.2-0.3,0.4-0.7,0.4c-0.4,0-0.7-0.2-0.7-0.4
					C74.8,69.5,75.1,69.3,75.6,69.3"/>
				<path id="Fill-185" class="st6" d="M77.6,70.5c0.4,0,0.7,0.2,0.7,0.4c0,0.2-0.3,0.4-0.7,0.4s-0.7-0.2-0.7-0.4
					C76.9,70.7,77.2,70.5,77.6,70.5"/>
				<path id="Fill-187" class="st6" d="M84.4,68.9c0.4,0,0.7,0.2,0.7,0.4c0,0.2-0.3,0.4-0.7,0.4s-0.7-0.2-0.7-0.4
					C83.7,69.1,84,68.9,84.4,68.9"/>
				<path id="Fill-189" class="st6" d="M86.5,70.1c0.4,0,0.7,0.2,0.7,0.4c0,0.2-0.3,0.4-0.7,0.4c-0.4,0-0.7-0.2-0.7-0.4
					C85.7,70.3,86.1,70.1,86.5,70.1"/>
				<path id="Fill-191" class="st6" d="M82,70.3c0.4,0,0.7,0.2,0.7,0.4c0,0.2-0.3,0.4-0.7,0.4c-0.4,0-0.7-0.2-0.7-0.4
					C81.3,70.5,81.6,70.3,82,70.3"/>
				<path id="Fill-193" class="st6" d="M84.1,71.5c0.4,0,0.7,0.2,0.7,0.4c0,0.2-0.3,0.4-0.7,0.4s-0.7-0.2-0.7-0.4
					C83.4,71.7,83.7,71.5,84.1,71.5"/>
				<path id="Fill-195" class="st6" d="M79.7,71.7c0.4,0,0.7,0.2,0.7,0.4c0,0.2-0.3,0.4-0.7,0.4c-0.4,0-0.7-0.2-0.7-0.4
					C78.9,71.9,79.3,71.7,79.7,71.7"/>
				<path id="Fill-197" class="st6" d="M81.7,72.9c0.4,0,0.7,0.2,0.7,0.4c0,0.2-0.3,0.4-0.7,0.4S81,73.5,81,73.3
					C81,73.1,81.3,72.9,81.7,72.9"/>
				<polygon id="Fill-199" class="st6" points="91.3,66.8 93.1,67.8 98.8,71.2 101.3,65 103.1,60.4 104.7,56.3 101.9,54.6 
					98.6,52.7 97,51.8 92.3,64.1 				"/>
				<polygon id="Fill-201" class="st6" points="64,50.9 72.7,55.9 78.2,59.1 88.7,65.3 89.4,63.6 91.2,58.9 94.5,50.3 88.7,46.9 
					85.4,45 73.7,38.2 69.8,35.9 68.9,38.1 				"/>
				<polygon id="Fill-203" class="st6" points="54.6,45.4 59.4,48.2 61.4,49.4 62.1,47.7 67.2,34.4 60.3,30.3 59.1,33.6 57.3,38.3 
									"/>
				<polygon id="Fill-205" class="st7" points="98.6,52.7 101.3,65 103.1,60.4 101.9,54.6 				"/>
				<polygon id="Fill-207" class="st7" points="57.3,38.3 59.4,48.2 61.4,49.4 62.1,47.7 59.1,33.6 				"/>
				<polygon id="Fill-209" class="st7" points="85.4,45 89.4,63.6 91.2,58.9 88.7,46.9 				"/>
				<polygon id="Fill-211" class="st7" points="68.9,38.1 72.7,55.9 78.2,59.1 73.7,38.2 69.8,35.9 				"/>
			</g>
		</g>
	</g>
</g>
</svg>
