<?xml version="1.0" encoding="utf-8"?>
<!-- Generator: Adobe Illustrator 24.1.0, SVG Export Plug-In . SVG Version: 6.00 Build 0)  -->
<svg version="1.1" id="图层_1" xmlns="http://www.w3.org/2000/svg" xmlns:xlink="http://www.w3.org/1999/xlink" x="0px" y="0px"
	 viewBox="0 0 67 94" style="enable-background:new 0 0 67 94;" xml:space="preserve">
<style type="text/css">
	.st0{fill-rule:evenodd;clip-rule:evenodd;fill:#19212C;}
	.st1{fill-rule:evenodd;clip-rule:evenodd;fill:#2E3C4D;}
	.st2{fill-rule:evenodd;clip-rule:evenodd;fill:#364A5B;}
	.st3{fill-rule:evenodd;clip-rule:evenodd;fill:#2470E0;}
	.st4{fill-rule:evenodd;clip-rule:evenodd;fill:#1C53B6;}
	.st5{fill-rule:evenodd;clip-rule:evenodd;fill:#E4ECF1;}
	.st6{fill-rule:evenodd;clip-rule:evenodd;fill:#C2E0F2;}
	.st7{fill-rule:evenodd;clip-rule:evenodd;fill:#FFFFFF;}
	.st8{filter:url(#Adobe_OpacityMaskFilter);}
	.st9{mask:url(#mask-2_1_);fill-rule:evenodd;clip-rule:evenodd;fill:#2E3C4D;}
	.st10{fill-rule:evenodd;clip-rule:evenodd;fill:#177FB3;}
	.st11{filter:url(#Adobe_OpacityMaskFilter_1_);}
	.st12{mask:url(#mask-4_1_);fill-rule:evenodd;clip-rule:evenodd;fill:#E4ECF1;}
</style>
<g id="页面-1">
	<g id="画板备份" transform="translate(-655.000000, -607.000000)">
		<g id="编组" transform="translate(655.395339, 607.419636)">
			<path id="Fill-1" class="st0" d="M5,70l23.6-21.8l8.8,4.6c0,0,3.5,5.5-2.8,9.4c-5.8,3.6-22.9,13.7-22.9,13.7l-2.7-1L5,70z"/>
			<path id="Fill-3" class="st1" d="M23.2,51.4c1.5-2.6,4-4,5.6-3.1l7.4,4.2l-5.5,9.5l-7.4-4.2C21.7,56.9,21.7,54,23.2,51.4"/>
			<path id="Fill-5" class="st1" d="M23.2,51.4c1.5-2.6,4-4,5.6-3.1l7.4,4.2l-5.5,9.5l-7.4-4.2C21.7,56.9,21.7,54,23.2,51.4"/>
			<path id="Fill-7" class="st1" d="M36.2,52.6c1.6,0.9,1.6,3.8,0.1,6.4c-1.5,2.6-4,4-5.6,3.1c-1.6-0.9-1.6-3.8-0.1-6.4
				C32.1,53,34.6,51.6,36.2,52.6"/>
			<path id="Fill-9" class="st1" d="M35.4,54c1.1,0.6,1.1,2.7,0.1,4.5c-1.1,1.8-2.8,2.8-3.9,2.2c-1.1-0.6-1.1-2.7-0.1-4.5
				C32.5,54.3,34.3,53.3,35.4,54"/>
			<path id="Fill-11" class="st1" d="M34.4,55.7c0.5,0.3,0.6,1.3,0,2.2c-0.5,0.9-1.4,1.4-1.9,1.1c-0.5-0.3-0.6-1.3,0-2.2
				C33,55.8,33.8,55.4,34.4,55.7"/>
			<path id="Fill-13" class="st1" d="M12.7,57.6c1.5-2.6,4-4,5.6-3.1l7.4,4.2l-5.5,9.5L12.9,64C11.3,63.1,11.2,60.3,12.7,57.6"/>
			<path id="Fill-15" class="st1" d="M12.7,57.6c1.5-2.6,4-4,5.6-3.1l7.4,4.2l-5.5,9.5L12.9,64C11.3,63.1,11.2,60.3,12.7,57.6"/>
			<path id="Fill-17" class="st1" d="M25.7,58.8c1.6,0.9,1.6,3.8,0.1,6.4c-1.5,2.6-4,4-5.6,3.1c-1.6-0.9-1.6-3.8-0.1-6.4
				C21.7,59.3,24.2,57.9,25.7,58.8"/>
			<path id="Fill-19" class="st1" d="M24.9,60.2c1.1,0.6,1.1,2.7,0.1,4.5c-1.1,1.8-2.8,2.8-3.9,2.2c-1.1-0.6-1.1-2.7-0.1-4.5
				C22.1,60.5,23.8,59.5,24.9,60.2"/>
			<path id="Fill-21" class="st1" d="M23.9,61.9c0.5,0.3,0.6,1.3,0,2.2c-0.5,0.9-1.4,1.4-1.9,1.1c-0.5-0.3-0.6-1.3,0-2.2
				C22.5,62.1,23.4,61.6,23.9,61.9"/>
			<path id="Fill-23" class="st1" d="M15.1,65.1c1.6,0.9,1.6,3.8,0.1,6.4c-1.5,2.6-4,4-5.6,3.1C8,73.7,8,70.8,9.5,68.2
				C11,65.5,13.5,64.2,15.1,65.1"/>
			<path id="Fill-25" class="st1" d="M14.3,66.5c1.1,0.6,1.1,2.7,0.1,4.5c-1.1,1.8-2.8,2.8-3.9,2.2c-1.1-0.6-1.1-2.7-0.1-4.5
				C11.4,66.8,13.2,65.8,14.3,66.5"/>
			<path id="Fill-27" class="st1" d="M13.3,68.2c0.5,0.3,0.6,1.3,0,2.2c-0.5,0.9-1.4,1.4-1.9,1.1c-0.5-0.3-0.6-1.3,0-2.2
				C11.9,68.3,12.8,67.9,13.3,68.2"/>
			<path id="Fill-29" class="st2" d="M1.5,71.4c-2-1.1-2-4.7-0.1-8c1-1.7,2.3-3,3.6-3.7l21-12.6c1.2-0.6,2.4-0.7,3.3-0.2l7.9,4.7
				l-3,0.6L11.6,65.9c0,0-3.5,3.2-3.1,7.1l0.9,3.1L1.5,71.4z"/>
			<path id="Fill-31" class="st1" d="M10,68.5c0.8-1.4,1.9-2.4,2.9-3l21-12.6c1-0.5,1.9-0.6,2.7-0.1c1.6,0.9,1.6,3.8,0.1,6.4
				c-0.8,1.3-1.8,2.3-2.8,2.9l-21,12.6c-1,0.6-2,0.7-2.8,0.2C8.5,74,8.5,71.1,10,68.5 M9.4,76.1c1,0.6,2.2,0.4,3.5-0.3l21-12.6
				c1.3-0.7,2.5-1.9,3.4-3.6c1.9-3.3,1.8-6.8-0.1-8c-0.9-0.5-2.1-0.4-3.3,0.2l-21,12.6c-1.3,0.7-2.7,2-3.6,3.7
				C7.4,71.4,7.5,74.9,9.4,76.1"/>
			<polygon id="Fill-33" class="st1" points="30.6,54.2 22.4,49.3 23,49 31.2,53.8 			"/>
			<polygon id="Fill-35" class="st1" points="14.7,63.9 6.3,59 7,58.6 15.3,63.5 			"/>
			<path id="Fill-37" class="st1" d="M25.6,47.4l0.4-0.2c0.1-0.1,0.2-0.1,0.3-0.1l8.5,5l-0.2,0.2l-0.3,0.1L34,52.4L25.6,47.4z"/>
			<path id="Fill-39" class="st1" d="M3.3,61c0.2-0.2,0.4-0.3,0.5-0.5l8.4,4.9l-0.3,0.2l-0.2,0.1c0,0,0,0-0.1,0.1L3.3,61z"/>
			<polygon id="Fill-41" class="st1" points="16,53.2 16.6,52.8 25.1,57.8 24.5,58.2 			"/>
			<polygon id="Fill-43" class="st1" points="19.2,51.3 19.8,50.9 28.3,55.8 27.7,56.2 			"/>
			<path id="Fill-45" class="st1" d="M0.2,66.6c0-0.2,0.1-0.4,0.2-0.7l8.4,4.9c-0.1,0.2-0.1,0.5-0.1,0.7L0.2,66.6z"/>
			<polygon id="Fill-47" class="st1" points="12.7,55.1 13.4,54.7 21.9,59.7 21.2,60.1 			"/>
			<path id="Fill-49" class="st1" d="M0.2,69.7c-0.1-0.3-0.1-0.6-0.2-0.9L8.9,74L9,74.5l-0.3,0.2L0.2,69.7z"/>
			<path id="Fill-51" class="st1" d="M9.9,68.1l-0.5,0.4l-8.1-4.8c0-0.1,0.1-0.1,0.1-0.2c0.1-0.1,0.1-0.2,0.2-0.4L9.9,68.1
				C9.9,68,9.9,68,9.9,68.1"/>
			<polygon id="Fill-53" class="st1" points="9.5,57.1 10.2,56.7 18.7,61.6 18,62 			"/>
			<path id="Fill-55" class="st1" d="M11,60.3l14.6-8.8c0,0,2.8,0.2,6.6,1.9L13.5,64.8C10.9,62.4,11,60.3,11,60.3"/>
			<path id="Fill-57" class="st3" d="M8.9,32.7c0.6-1,1.9-1.8,2.5-2.2c0.9-1.2,2.3-2,4-2c2.8,0,5,2.2,5,5c0,2.8-2.2,5-5,5
				c-0.9,0-1.7-0.2-2.4-0.6c-0.8,0.5-0.7,1.4-1.3,1.7c-0.7,0.4-1.3-0.4-1-1.6c0.2-0.7,0.6-1.2,0.8-1.4c-0.2-0.3-0.4-0.6-0.5-0.9
				c-0.4,0.3-0.6,0.7-0.8,1.7c-0.3,1.2-1.6,0.8-1.6-0.2c0-1,0.5-2.1,0.5-2.1C8.1,35,8,34.1,8.9,32.7"/>
			<path id="Fill-59" class="st4" d="M9.7,34.8C9.5,35.1,9,35.2,9,35.2c-0.4-0.1-0.6-0.3-0.7-0.6c0.3,0.2,0.7-0.1,1-0.5
				c0.4-0.6,0.9-1,1.9-1.7c1-0.7,1.2-1.3,1.2-1.3c0.1,0.1,0.1,0.2,0.1,0.4c0.1,0.2,0.3,0.6,0.6,0.9c0.8,0.9,0.7,2.3-1,1.3l0.1,0.8
				c0,0,0.6,0.4,0.8,0.8c0.2-0.1,0.2-0.2,0.2-0.2c0.4,0.8,1.5,0.2,2-0.9c0.5-1.1,0.1-1.5,0.1-1.5c1.2-1.4,0.5-3.5,0.5-3.5l0.9-0.4
				c2,0.7,3.4,2.5,3.4,4.8c0,2.8-2.2,5-5,5c-0.9,0-1.7-0.2-2.4-0.6c-0.8,0.5-0.7,1.4-1.3,1.7c-0.4,0.2-0.8,0.1-1-0.3
				c0.5,0.1,0.6-0.6,0.9-1.3c0.4-0.7,1.1-0.8,0.8-1.3c-0.2-0.5-0.9-0.1-0.9-0.1c-0.2-0.3-0.4-0.6-0.5-0.9c-0.4,0.3-0.6,0.7-0.8,1.7
				c-0.2,1-1.2,0.9-1.5,0.2c0.8,0.1,0.9-1.1,1.3-1.9C10.2,35,9.7,34.8,9.7,34.8"/>
			<path id="Fill-61" class="st3" d="M22.8,27.1c0,2.8,2.2,5,5,5s5-2.2,5-5c0-2.8-2.2-5-5-5S22.8,24.4,22.8,27.1"/>
			<path id="Fill-63" class="st5" d="M13.2,29l12.3-6.4c0,0,2.9,0.2,4.6,3.8c1.5,3.3-0.1,5.2-0.1,5.2l-11.5,5.9c0,0,1.7-2.2-0.2-5.7
				C16.4,28.3,13.2,29,13.2,29"/>
			<path id="Fill-65" class="st6" d="M17.6,30.8l8.3-4.2c-0.2-0.9-0.9-1.6-0.9-1.6l3.9,1.5l1.5,4.6c-0.2,0.4-0.4,0.7-0.4,0.7
				l-11.5,5.9c0,0,1.7-2.2-0.2-5.7C18,31.5,17.8,31.1,17.6,30.8"/>
			<path id="Fill-67" class="st7" d="M23.9,25.4c1.2,0.9-5.8,4.4-6.9,3.6C15.9,28.3,22.8,24.6,23.9,25.4"/>
			<path id="Fill-69" class="st3" d="M26.9,23l-2.6,1.7c0,0,1.9,0.7,3,3.3s0,5.1,0,5.1l2.5-1.1l0.4-5.2L26.9,23z"/>
			<path id="Fill-71" class="st4" d="M26.1,26.1l0.7-0.4c-0.4-0.8-0.6-1.6-0.7-2.2l0.8-0.5l3.3,3.7l-0.4,5.2L27.3,33
				c0,0,1.1-2.5,0-5.1C26.9,27.2,26.5,26.6,26.1,26.1"/>
			<path id="Fill-73" class="st3" d="M26.2,21.8c0,4.1,3.4,7.5,7.5,7.5c4.1,0,7.5-3.4,7.5-7.5c0-4.1-3.4-7.5-7.5-7.5
				C29.6,14.3,26.2,17.7,26.2,21.8"/>
			<path id="Fill-75" class="st5" d="M26.2,84.9c0,0-3.8-2.2-9.3-5.3c-5.5-3.1-7.2-5-7.2-5s-1.9-4.8,3.3-9l21.8-12.8
				c0,0,2.5-0.2,5.9,1.6c3.4,1.8,7,4,10,6.2c2.3,1.6,3.3,4,3.3,4L26.2,84.9z"/>
			<path id="Fill-77" class="st7" d="M13.8,66.5c0.9-0.1,3.8,2.1,6.6,4.1c3.2,2.2,6.4,4.2,6.2,4.7c-0.4,0.9-10.1-5.1-13-5.1
				c-1,0-2,3.5-2.9,2.8C9.8,72.6,11.4,66.8,13.8,66.5"/>
			<path id="Fill-79" class="st6" d="M16.8,79.6c-5.5-3.1-7.2-5-7.2-5s-0.2-0.5-0.3-1.2c3.7,4,14.9,9.4,15.2,9
				c0.3-0.3,0-2.3,1.9-4.8c2-2.7,5.3-4.2,5.3-4.2l6.7,1.3l-1.8,2.5l-10.4,7.6C26.2,84.9,22.3,82.7,16.8,79.6"/>
			<path id="Fill-81" class="st6" d="M14,64.9l20.7-12.2c0,0,2.5-0.2,5.9,1.6c3.4,1.8,7,4,10,6.2c1.2,0.8,2,1.9,2.5,2.7l-20.6,9.2
				c0,0-3.3-1.6-7.4-4c-4.1-2.4-5.6-3.5-5.8-4l-3.4,2C15.9,66.5,14.7,65.8,14,64.9"/>
			<path id="Fill-83" class="st5" d="M35,53.4L16,65c-5.1-3-5-6.2-5-6.2v-1l24-5.3V53.4z"/>
			<path id="Fill-85" class="st6" d="M35,53.4L16,65c-5.1-3-5-6.2-5-6.2v-1l24-5.3V53.4z"/>
			<polygon id="Fill-87" class="st6" points="16,64 16,65 35,53.4 23.5,57.1 			"/>
			<path id="Fill-89" class="st5" d="M35,52.4L16,64c-5.1-3-5-6.2-5-6.2L25.6,49C25.6,49,29.8,49.2,35,52.4"/>
			<path id="Fill-91" class="st6" d="M32.3,54.1l-12.7,7.7c0-0.7,0.1-1.4,0.2-1.5c0.4-0.5,11.8-6.9,11.8-6.9L32.3,54.1z"/>
			<path id="Fill-93" class="st5" d="M35.1,52.2c-0.9,0.5-14.9,8-15,8.5c-0.1,0.5-0.3,3.1,0.1,3.8c0.3,0.8,11.5,7.1,12.2,7.2
				c0.6,0.1,15.6-9.4,16-9.6c0.3-0.2,1.5-1.2,3.5,0c0,0,0.1-2.7-0.1-3.7c-0.3-1-10.3-6.2-11.2-6.7C39.6,51.2,36.8,51.3,35.1,52.2"/>
			<path id="Fill-95" class="st7" d="M31.8,54.8c0,0-9,5.1-9.3,6.2c-0.3,1.1,10.6,6.5,10.3,7.2c-0.4,0.8-10.4-5.3-11-5.3
				c-0.6-0.1-0.3,1.5-1,1.3c-0.6-0.2-0.3-3.1-0.1-3.5c0.3-0.4,10.8-6.5,10.8-6.5L31.8,54.8z"/>
			<path id="Fill-97" class="st6" d="M33.3,72.6C33.3,72.6,33.3,72.6,33.3,72.6C33.3,72.6,33.4,72.7,33.3,72.6"/>
			<path id="Fill-99" class="st6" d="M33.5,68.9c0.2-0.1,13.8-8,16.5-9.4c0.9-0.5,1.3-0.9,1.4-1.3c0.1,0.1,0.2,0.2,0.2,0.3
				c0.3,1,0.1,3.7,0.1,3.7c-1.9-1.2-3.1-0.2-3.5,0c-0.3,0.2-11.8,7.5-15.1,9.2C33.3,70.2,33.2,69.2,33.5,68.9"/>
			<path id="Fill-101" class="st2" d="M43.6,58.6c0.1,0.7-7.2,4.7-8,4.7c-0.8,0-8-4.3-8-4.9c-0.1-0.6,7.5-4.7,8.1-4.7
				S43.5,57.9,43.6,58.6"/>
			<path id="Fill-103" class="st1" d="M33.6,56.1c1.1,0,7.5,3.3,7.5,4.2c0,0.1,0,0.2-0.1,0.3c-0.9,0.6-2,1.2-2.9,1.7
				c-1.3,0-7.7-3.5-7.7-4.4C30.4,57.2,32.5,56.1,33.6,56.1"/>
			<path id="Fill-105" class="st1" d="M35.7,54.3c-0.5,0-6.7,3.3-7.9,4.4c-0.1-0.1-0.2-0.2-0.2-0.3c-0.1-0.6,7.5-4.7,8.1-4.7
				s7.8,4.2,7.9,4.8c0,0.1-0.1,0.2-0.2,0.3C42.4,57.8,36.3,54.3,35.7,54.3"/>
			<path id="Fill-107" class="st0" d="M30.5,85.2l23.6-21.8l8.8,4.6c0,0,3.5,5.5-2.8,9.4C54.3,81,37.2,91.1,37.2,91.1l-2.7-1
				L30.5,85.2z"/>
			<path id="Fill-109" class="st1" d="M48.7,66.6c1.5-2.6,4-4,5.6-3.1l7.4,4.2l-5.5,9.5L48.8,73C47.2,72.1,47.2,69.2,48.7,66.6"/>
			<path id="Fill-111" class="st1" d="M48.7,66.6c1.5-2.6,4-4,5.6-3.1l7.4,4.2l-5.5,9.5L48.8,73C47.2,72.1,47.2,69.2,48.7,66.6"/>
			<path id="Fill-113" class="st1" d="M61.7,67.8c1.6,0.9,1.6,3.8,0.1,6.4c-1.5,2.6-4,4-5.6,3.1c-1.6-0.9-1.6-3.8-0.1-6.4
				C57.6,68.2,60.1,66.8,61.7,67.8"/>
			<path id="Fill-115" class="st1" d="M60.9,69.2c1.1,0.6,1.1,2.7,0.1,4.5c-1.1,1.8-2.8,2.8-3.9,2.2c-1.1-0.6-1.1-2.7-0.1-4.5
				C58,69.5,59.7,68.5,60.9,69.2"/>
			<path id="Fill-117" class="st1" d="M59.9,70.9c0.5,0.3,0.6,1.3,0,2.2c-0.5,0.9-1.4,1.4-1.9,1.1c-0.5-0.3-0.6-1.3,0-2.2
				C58.5,71,59.3,70.5,59.9,70.9"/>
			<path id="Fill-119" class="st1" d="M38.2,72.8c1.5-2.6,4-4,5.6-3.1l7.4,4.2l-5.5,9.5l-7.4-4.2C36.8,78.3,36.7,75.5,38.2,72.8"/>
			<path id="Fill-121" class="st1" d="M38.2,72.8c1.5-2.6,4-4,5.6-3.1l7.4,4.2l-5.5,9.5l-7.4-4.2C36.8,78.3,36.7,75.5,38.2,72.8"/>
			<path id="Fill-123" class="st1" d="M51.2,74c1.6,0.9,1.6,3.8,0.1,6.4c-1.5,2.6-4,4-5.6,3.1c-1.6-0.9-1.6-3.8-0.1-6.4
				C47.2,74.5,49.7,73.1,51.2,74"/>
			<path id="Fill-125" class="st1" d="M50.4,75.4c1.1,0.6,1.1,2.7,0.1,4.5c-1.1,1.8-2.8,2.8-3.9,2.2c-1.1-0.6-1.1-2.7-0.1-4.5
				C47.5,75.7,49.3,74.7,50.4,75.4"/>
			<path id="Fill-127" class="st1" d="M49.4,77.1c0.5,0.3,0.6,1.3,0,2.2c-0.5,0.9-1.4,1.4-1.9,1.1c-0.5-0.3-0.6-1.3,0-2.2
				C48,77.3,48.9,76.8,49.4,77.1"/>
			<path id="Fill-129" class="st1" d="M40.6,80.3c1.6,0.9,1.6,3.8,0.1,6.4c-1.5,2.6-4,4-5.6,3.1c-1.6-0.9-1.6-3.8-0.1-6.4
				C36.5,80.7,39,79.4,40.6,80.3"/>
			<path id="Fill-131" class="st1" d="M39.8,81.7c1.1,0.6,1.1,2.7,0.1,4.5C38.8,88,37,89,35.9,88.4c-1.1-0.6-1.1-2.7-0.1-4.5
				C36.9,82,38.7,81,39.8,81.7"/>
			<path id="Fill-133" class="st1" d="M38.8,83.4c0.5,0.3,0.6,1.3,0,2.2c-0.5,0.9-1.4,1.4-1.9,1.1c-0.5-0.3-0.6-1.3,0-2.2
				C37.4,83.5,38.2,83.1,38.8,83.4"/>
			<path id="Fill-135" class="st2" d="M27,86.6c-2-1.1-2-4.7-0.1-8c1-1.7,2.3-3,3.6-3.7l21-12.6c1.2-0.6,2.4-0.7,3.3-0.2l7.9,4.7
				l-3,0.6L37.1,81.1c0,0-3.5,3.2-3.1,7.1l0.9,3.1L27,86.6z"/>
			<g transform="translate(33.109347, 65.927466)">
				<defs>
					<filter id="Adobe_OpacityMaskFilter" filterUnits="userSpaceOnUse" x="0.3" y="0.6" width="30.8" height="25.1">
						<feColorMatrix  type="matrix" values="1 0 0 0 0  0 1 0 0 0  0 0 1 0 0  0 0 0 1 0"/>
					</filter>
				</defs>
				<mask maskUnits="userSpaceOnUse" x="0.3" y="0.6" width="30.8" height="25.1" id="mask-2_1_">
					<g class="st8">
						<polygon id="path-1_1_" class="st7" points="0.3,0.6 31.1,0.6 31.1,25.7 0.3,25.7 						"/>
					</g>
				</mask>
				<path id="Fill-137" class="st9" d="M2.4,17.8c0.8-1.4,1.9-2.4,2.9-3l21-12.6c1-0.5,1.9-0.6,2.7-0.1c1.6,0.9,1.6,3.8,0.1,6.4
					c-0.8,1.3-1.8,2.3-2.8,2.9l-21,12.6c-1,0.6-2,0.7-2.8,0.2C0.9,23.3,0.9,20.4,2.4,17.8 M1.8,25.3c1,0.6,2.2,0.4,3.5-0.3l21-12.6
					c1.3-0.7,2.5-1.9,3.4-3.6c1.9-3.3,1.8-6.8-0.1-8c-0.9-0.5-2.1-0.4-3.3,0.2l-21,12.6c-1.3,0.7-2.7,2-3.6,3.7
					C-0.2,20.6-0.1,24.2,1.8,25.3"/>
			</g>
			<polygon id="Fill-139" class="st1" points="56.1,69.4 47.9,64.5 48.5,64.2 56.7,69 			"/>
			<polygon id="Fill-141" class="st1" points="40.2,79.1 31.8,74.2 32.4,73.8 40.8,78.7 			"/>
			<path id="Fill-143" class="st1" d="M51.1,62.6l0.4-0.2c0.1-0.1,0.2-0.1,0.3-0.1l8.5,5l-0.2,0.2l-0.3,0.1l-0.2,0.1L51.1,62.6z"/>
			<path id="Fill-145" class="st1" d="M28.8,76.2c0.2-0.2,0.4-0.3,0.5-0.5l8.4,4.9l-0.3,0.2l-0.2,0.1c0,0,0,0-0.1,0.1L28.8,76.2z"/>
			<polygon id="Fill-147" class="st1" points="41.5,68.4 42.1,68 50.6,73 49.9,73.4 			"/>
			<polygon id="Fill-149" class="st1" points="44.7,66.5 45.3,66.1 53.8,71 53.2,71.4 			"/>
			<path id="Fill-151" class="st1" d="M25.6,81.8c0-0.2,0.1-0.4,0.2-0.7l8.4,4.9c-0.1,0.2-0.1,0.5-0.1,0.7L25.6,81.8z"/>
			<polygon id="Fill-153" class="st1" points="38.2,70.3 38.9,69.9 47.4,74.9 46.7,75.3 			"/>
			<path id="Fill-155" class="st1" d="M25.7,84.9c-0.1-0.3-0.1-0.6-0.2-0.9l8.8,5.2l0.1,0.5l-0.3,0.2L25.7,84.9z"/>
			<path id="Fill-157" class="st1" d="M35.4,83.3l-0.5,0.4l-8.1-4.8c0-0.1,0.1-0.1,0.1-0.2c0.1-0.1,0.1-0.2,0.2-0.4L35.4,83.3
				C35.4,83.2,35.4,83.2,35.4,83.3"/>
			<polygon id="Fill-159" class="st1" points="35,72.3 35.7,71.9 44.2,76.8 43.5,77.2 			"/>
			<path id="Fill-161" class="st1" d="M51,62.7c3.3,2.6,4.2,5.3,4.2,5.3l-15.2,9.1c-3.9-0.2-7.3-1.6-9.1-2.4L51,62.7z"/>
			<path id="Fill-163" class="st5" d="M54.8,66.5v1l-14.7,8.8c0,0-5.1-0.6-9.7-3.4v-1L54.8,66.5z"/>
			<path id="Fill-165" class="st6" d="M54.8,66.5v1l-14.7,8.8c0,0-5.1-0.6-9.7-3.4v-1L54.8,66.5z"/>
			<polygon id="Fill-167" class="st6" points="40.1,75.3 40.1,76.3 54.8,67.5 54.8,66.5 			"/>
			<path id="Fill-169" class="st5" d="M49.6,60.4c4.6,2.9,5.2,6.1,5.2,6.1l-14.7,8.8c0,0-5.1-0.6-9.7-3.4L49.6,60.4z"/>
			<path id="Fill-171" class="st3" d="M44.1,48.7c0,0-1.3,3.1-2.2,5.8c-0.9,2.7-1.2,4.6-1.5,5.3c-0.3,0.7-1.4,1.7-2.5,1.8
				c-1.1,0.1-6.5-2.9-6.9-4c-0.4-1.1,0.8-8,3.3-12.3L44.1,48.7z"/>
			<path id="Fill-173" class="st4" d="M34.2,59.2c3.7,2.2,5,1.3,5.5,0.3c-0.5,0.2-1.5,0.4-2.8-0.4c-1.8-1.1-4.6-2.7-5.7-3.4
				c-0.1,0-0.1-0.1-0.2-0.1c0-0.2,0-0.3,0.1-0.5c0.1,0.1,0.2,0.2,0.3,0.2c1,0.6,3.8,2.3,5.6,3.3c1.4,0.8,2.4,0.5,2.8,0.4
				c0.1-0.4,0.3-1,0.5-1.7c-0.5,0.2-1.5,0.3-2.8-0.4c-1.8-1.1-4.6-2.7-5.7-3.4c-0.2-0.1-0.3-0.2-0.4-0.3c0-0.2,0.1-0.4,0.1-0.6
				c0.1,0.2,0.3,0.3,0.5,0.5c1,0.6,3.8,2.3,5.6,3.3c1.3,0.7,2.4,0.6,2.8,0.4c0.2-0.6,0.4-1.2,0.6-1.9c-0.5,0.2-1.5,0.3-2.8-0.4
				c-1.8-1.1-4.6-2.7-5.7-3.4c-0.2-0.2-0.4-0.3-0.5-0.4c0.1-0.2,0.1-0.4,0.2-0.6c0.1,0.2,0.3,0.4,0.6,0.6c1,0.6,3.8,2.3,5.6,3.3
				c1.3,0.8,2.4,0.5,2.8,0.4c0-0.1,0.1-0.2,0.1-0.4c0.2-0.6,0.4-1.1,0.5-1.5c-0.5,0.2-1.5,0.3-2.8-0.4c-1.8-1.1-4.6-2.7-5.7-3.4
				c-0.2-0.1-0.4-0.3-0.5-0.4c0.1-0.2,0.1-0.3,0.2-0.5c0.1,0.2,0.3,0.3,0.5,0.5c1,0.6,3.8,2.3,5.6,3.3c1.3,0.7,2.3,0.6,2.8,0.4
				c0.2-1.1-0.1-1.5-0.9-1.6c-0.8-0.1-1.6-0.4-2.5-0.8c-2.1-1.1-3.7-2.1-5-3c0.2-0.5,0.5-1,0.8-1.5l9.7,3.4c0,0-1.3,3.1-2.2,5.8
				c-0.9,2.7-1.2,4.6-1.5,5.3c-0.3,0.7-1.4,1.7-2.5,1.8c-1.1,0.1-6.5-2.9-6.9-4c-0.1-0.1-0.1-0.4-0.1-0.7
				C31.5,57.6,32.7,58.3,34.2,59.2"/>
			<path id="Fill-175" class="st5" d="M46,45.2c0,0-0.5,2-1,3.3c-0.5,1.3-3.6,2.1-6.3,0.5c-2.8-1.5-3.3-2-4.9-3
				c-1.6-1-2.2-2.9-0.8-6L46,45.2z"/>
			<path id="Fill-177" class="st6" d="M32.8,40L46,45.2c0,0-0.5,2-1,3.3c-0.5,1.3-3.4,2-6.1,0.7c2-0.1,1.8-2.4-0.1-3.3
				c-1.9-0.8-5.4-3.1-6.6-3.8C32.2,41.5,32.5,40.8,32.8,40"/>
			<path id="Fill-179" class="st6" d="M39.7,45.7c-2.3-1.1-5.9-3.2-7.4-4.1c0.1-0.5,0.3-1,0.6-1.6L46,45.2c0,0-0.2,0.6-0.4,1.4
				C43.9,46.8,41.5,46.6,39.7,45.7"/>
			<path id="Fill-181" class="st7" d="M32.6,43.7c0-0.8,3.3,1.4,3.2,2.1S32.6,44.6,32.6,43.7"/>
			<path id="Fill-183" class="st5" d="M48.1,21.2c3.4,1.9,6.9,3.8,5.7,9.7s-2,8.8-2.6,10.8c-1,3.3-5.7,6.4-12.9,2.8
				c-3.3-1.6-6.3-3.7-8.9-5.4c-2.3-1.6-2.1-4.8-1.3-8.7c0.5-2.8,1.1-5.6,1.6-7.8s3.3-7.4,10.4-5.3L48.1,21.2z"/>
			<path id="Fill-185" class="st7" d="M40.9,25.6c0.3,0.7-2.6,1.6-5.9,1.3c-2.1-0.2-3.5,2.1-3.8,4.7c-0.4,2.6-0.6,5.3-1.3,5
				c-0.6-0.3-0.4-3,0.1-7.2c0.5-4.2,1.3-6.5,1.8-6.5c0.5,0.1,1,1.1,2.8,1.7C38.1,25.8,40.5,24.5,40.9,25.6"/>
			<path id="Fill-187" class="st3" d="M29.3,37.8c-1-0.8-1.2-2.1-1-4.4c0.3-3.7,1.6-9.1,2.2-11.1c0.8-2.7,3.6-5.5,8-5.4
				c0.5,0.1,1,0.2,1.6,0.3l0.3,0.1c-5-0.8-8.5,2.3-9.3,5c-0.5,1.9-1.9,7.7-2.2,11.1c-0.2,2,0,3.2,0.9,4c1.5,1.2,5.9,3.8,7.7,4.7
				c1.8,0.9,2.3,0.1,2.4-1.3c0.2-1.8,1-10.9,2.7-14.1c1.7-3.1,5.5-4.3,7.8-4.2c0.2,0.1,0.4,0.3,0.6,0.4c-2.5-0.2-6.4,1-7.9,4.1
				c-1.7,3.5-2.4,12.4-2.6,14.3c-0.2,1.6-0.6,2.4-2.6,1.5C35.8,42,31,39.1,29.3,37.8"/>
			<path id="Fill-189" class="st6" d="M38.2,44.5c1.5,0.1,2.6-0.6,2.8-2.8c0.8-6.8,0.8-12.8,4.2-15.8c2.4-2.2,5.2-2.2,6.6-2.1
				c1.6,1.5,2.6,3.6,1.9,7.1c-1.2,5.9-2,8.8-2.6,10.8C50.1,45,45.5,48.1,38.2,44.5C38.2,44.5,38.2,44.5,38.2,44.5"/>
			<path id="Fill-191" class="st3" d="M31.9,21.5c-0.7-1.6,3-3.5,7.2-4.5c0.3,0.1,0.6,0.1,1,0.2l8,4c0.4,0.2,0.7,0.4,1.1,0.6
				c-0.7,0.4-3.6,1.8-7.6,2.3C36.8,24.6,33,24.1,31.9,21.5"/>
			<path id="Fill-193" class="st3" d="M39.8,30.5c0.2,0.6-0.3,3.9-0.7,3.9c-0.4,0-1.9-0.6-2-1.2c-0.2-0.6,0.3-3.6,0.6-3.8
				C38,29.1,39.6,29.9,39.8,30.5"/>
			<path id="Fill-195" class="st3" d="M33.6,26.9c0.2,0.6-0.4,3.9-0.8,3.9c-0.4,0-1.8-0.6-2-1.3c-0.1-0.6,0.3-3.5,0.7-3.8
				C31.8,25.5,33.4,26.3,33.6,26.9"/>
			<path id="Fill-197" class="st10" d="M37.6,29.4c0.1,0,0.2-0.1,0.3,0c-0.3,0.7-0.6,3.1-0.5,3.6c0.1,0.5,1.2,1.1,1.8,1.2
				c-0.1,0.2-0.1,0.3-0.2,0.3c-0.4,0-1.9-0.6-2-1.2C36.9,32.6,37.3,29.6,37.6,29.4"/>
			<path id="Fill-199" class="st10" d="M31.5,25.8c0.1,0,0.2-0.1,0.3,0c-0.3,0.7-0.7,3-0.5,3.6c0.1,0.5,1.2,1.1,1.8,1.2
				c-0.1,0.2-0.2,0.3-0.2,0.3c-0.4,0-1.8-0.6-2-1.3C30.6,28.9,31.1,26,31.5,25.8"/>
			<g transform="translate(27.703739, 0.384474)">
				<defs>
					<filter id="Adobe_OpacityMaskFilter_1_" filterUnits="userSpaceOnUse" x="0.4" y="0.3" width="25.3" height="23.1">
						<feColorMatrix  type="matrix" values="1 0 0 0 0  0 1 0 0 0  0 0 1 0 0  0 0 0 1 0"/>
					</filter>
				</defs>
				<mask maskUnits="userSpaceOnUse" x="0.4" y="0.3" width="25.3" height="23.1" id="mask-4_1_">
					<g class="st11">
						<polygon id="path-3_1_" class="st7" points="0.4,0.3 25.7,0.3 25.7,23.4 0.4,23.4 						"/>
					</g>
				</mask>
				<path id="Fill-201" class="st12" d="M11.3,0.9C21-2,26.7,6,25.6,14.1c-1.1,8-11.3,10.5-18.2,8.9C-3.7,20.2-0.9,4.4,11.3,0.9"/>
			</g>
			<path id="Fill-203" class="st3" d="M41.8,10.9c-4.9,0-9.1-2-10.4-4.6c0.3-0.3,0.6-0.7,0.9-1C33,8,37,10.1,41.8,10.1
				c4.9,0,8.9-2.2,9.5-5c0.3,0.4,0.5,0.9,0.8,1.3C50.6,9,46.6,10.9,41.8,10.9"/>
			<path id="Fill-205" class="st6" d="M36.1,23.5c8,0,13.8-5.1,13.4-11.7c-0.3-5.3-4.7-9.5-9.1-10.8c8.9-1.7,14,5.9,12.9,13.5
				C52.2,22.1,42.9,24.7,36.1,23.5"/>
			<path id="Fill-207" class="st0" d="M32.3,5.2L32.3,5.2c0,0,1.9,6.4,13.3,4.4c0,0-6,6.9-1.5,13.6c-3,0.7-6.3,0.7-9,0.1
				C26.5,21.2,26.3,11.2,32.3,5.2"/>
			<path id="Fill-209" class="st1" d="M43.6,10.9c0,0-8.3,1.3-11.7-4.2c0,0-4.2,4.4-2.6,10.1c0,0,0.6-3,4.1-3
				C38.2,13.9,41.5,12.9,43.6,10.9"/>
			<path id="Fill-211" class="st0" d="M31,21.3c4.9,2.5,10.7,0.9,12.2,0.4c0.2,0.5,0.5,1,0.9,1.6c-3,0.7-6.3,0.7-9,0.1
				C33.4,22.9,32.1,22.2,31,21.3"/>
			<path id="Fill-213" class="st7" d="M34.1,6.3c0.4,1.3,2.5,1.7,4.7,1c2.1-0.7,3.5-2.3,3.1-3.6c-0.4-1.3-2.5-1.7-4.7-1
				C35.1,3.4,33.7,5,34.1,6.3"/>
			<path id="Fill-215" class="st3" d="M43.2,52.5c0.5-0.6,1.2-0.8,1.7-0.9c0.9-1.2,2.3-1.9,3.9-1.9c2.8,0,5,2.2,5,5
				c0,2.6-2,4.7-4.5,5c-0.8,0.9-1.6,1.3-3.3,1.2c-1.7,0-1.5-1.1-1.5-1.1c-1.2-0.5-0.3-1.4-0.3-1.4c-0.4-0.7-0.2-1.1,0.2-1.2
				c-0.4-0.7-0.7-1.6-0.7-2.5c0-0.2,0-0.3,0-0.5C42.5,54.9,42.4,53.4,43.2,52.5"/>
			<path id="Fill-217" class="st4" d="M44.6,59.9c-1.2-0.5-0.3-1.4-0.3-1.4c-0.1-0.1-0.1-0.3-0.2-0.4c1,0.3,2.9-0.1,3.7-0.8
				c0.9-0.8,1.2-2.6,1.2-2.6c1.2-1.7,0.2-4.2,0.2-4.2l4.3,2.9c0.1,0.4,0.2,0.9,0.2,1.4c0,2.6-2,4.7-4.5,5c-0.8,0.9-1.6,1.3-3.3,1.2
				C44.4,60.9,44.6,59.9,44.6,59.9"/>
			<path id="Fill-219" class="st4" d="M44.7,52.9c1.2-0.4,1-1.1,1-1.1c1.6,1.7,1.5,3.5,0.6,3.3c-0.7-0.1-1.3-1.6-1.3-1.6
				c-0.6,0.1-1.1,0.7-1.1,0.7c-0.6,0.3-1,0.1-1.1-0.2C43.4,54.1,43.7,53.2,44.7,52.9"/>
			<path id="Fill-221" class="st3" d="M54.8,46.5c0,2.8,2.2,5,5,5c2.8,0,5-2.2,5-5c0-2.8-2.2-5-5-5C57,41.4,54.8,43.7,54.8,46.5"/>
			<path id="Fill-223" class="st4" d="M54.8,46.5c0,2.8,2.2,5,5,5c2.8,0,5-2.2,5-5c0-2.8-2.2-5-5-5C57,41.4,54.8,43.7,54.8,46.5"/>
			<path id="Fill-225" class="st5" d="M46.6,50.3L57.5,42c0,0,2.9,0.2,4.6,3.8C63.6,49.1,62,51,62,51l-10.1,7.7c0,0,2-2.3-0.2-5.7
				C49.4,49.6,46.6,50.3,46.6,50.3"/>
			<path id="Fill-227" class="st6" d="M50.9,52.1l7-5.2c-1.2-2.6-3.3-2.5-3.7-2.4l3.3-2.5c0,0,2.9,0.2,4.6,3.8
				C63.6,49.1,62,51,62,51l-10.1,7.7c0,0,2-2.3-0.2-5.7C51.4,52.7,51.2,52.3,50.9,52.1"/>
			<path id="Fill-229" class="st7" d="M55.8,45.3c1.6,1-4.5,5.5-5.8,4.7C48.7,49.3,54.7,44.6,55.8,45.3"/>
			<path id="Fill-231" class="st3" d="M43.3,31.5c0,4.1,3.4,7.5,7.5,7.5s7.5-3.4,7.5-7.5S55,24,50.8,24S43.3,27.4,43.3,31.5"/>
			<path id="Fill-233" class="st4" d="M50.1,24c0.2,0,0.5,0,0.7,0c4.1,0,7.5,3.4,7.5,7.5S55,39,50.8,39l0.3-0.6
				c1.7-1.2,3.3-3.3,3.1-6.6C54,27.5,52,25.1,50.1,24"/>
			<path id="Fill-235" class="st3" d="M53.9,44.7l-3.7-6.2c4.8-1.3,7.1-4.3,7.1-4.3l5.1,8.6c0,0-2.4,0.6-5.1,2.7
				c0,0-1.2-1.5-2.8-1.2L53.9,44.7z"/>
			<path id="Fill-237" class="st4" d="M57.2,44.6l-4.3-7c3-1.4,4.5-3.3,4.5-3.3l5.1,8.6c0,0-2.4,0.6-5.1,2.7c0,0-1.2-1.5-2.8-1.2
				l-0.7,0.5l-0.2-0.4C55.4,42.9,57.2,44.6,57.2,44.6"/>
		</g>
	</g>
</g>
</svg>
