<?xml version="1.0" encoding="utf-8"?>
<!-- Generator: Adobe Illustrator 24.1.0, SVG Export Plug-In . SVG Version: 6.00 Build 0)  -->
<svg version="1.1" id="图层_1" xmlns="http://www.w3.org/2000/svg" xmlns:xlink="http://www.w3.org/1999/xlink" x="0px" y="0px"
	 viewBox="0 0 42 79" style="enable-background:new 0 0 42 79;" xml:space="preserve">
<style type="text/css">
	.st0{fill-rule:evenodd;clip-rule:evenodd;fill:#38D6FF;}
	.st1{filter:url(#Adobe_OpacityMaskFilter);}
	.st2{fill-rule:evenodd;clip-rule:evenodd;fill:#FFFFFF;}
	.st3{mask:url(#mask-2_1_);fill-rule:evenodd;clip-rule:evenodd;fill:#38D6FF;}
	.st4{fill-rule:evenodd;clip-rule:evenodd;fill:#CED5DD;}
	.st5{fill-rule:evenodd;clip-rule:evenodd;fill:#F8F9FB;}
	.st6{filter:url(#Adobe_OpacityMaskFilter_1_);}
	.st7{mask:url(#mask-4_1_);fill-rule:evenodd;clip-rule:evenodd;fill:#CED5DD;}
	.st8{filter:url(#Adobe_OpacityMaskFilter_2_);}
	.st9{mask:url(#mask-6_1_);fill-rule:evenodd;clip-rule:evenodd;fill:#2A53D3;}
	.st10{filter:url(#Adobe_OpacityMaskFilter_3_);}
	.st11{mask:url(#mask-8_1_);fill-rule:evenodd;clip-rule:evenodd;fill:#38D6FF;}
	.st12{fill-rule:evenodd;clip-rule:evenodd;fill:#2A53D3;}
	.st13{filter:url(#Adobe_OpacityMaskFilter_4_);}
	.st14{mask:url(#mask-10_1_);fill-rule:evenodd;clip-rule:evenodd;fill:#2A53D3;}
	.st15{fill-rule:evenodd;clip-rule:evenodd;fill:#7C92AB;}
	.st16{fill-rule:evenodd;clip-rule:evenodd;fill:#AFBACB;}
	.st17{fill-rule:evenodd;clip-rule:evenodd;fill:#6670AD;}
	.st18{fill-rule:evenodd;clip-rule:evenodd;fill:#24A2F0;}
	.st19{filter:url(#Adobe_OpacityMaskFilter_5_);}
	.st20{mask:url(#mask-12_1_);fill-rule:evenodd;clip-rule:evenodd;fill:#01004D;}
	.st21{filter:url(#Adobe_OpacityMaskFilter_6_);}
	.st22{mask:url(#mask-14_1_);fill-rule:evenodd;clip-rule:evenodd;fill:#2A53D3;}
	.st23{filter:url(#Adobe_OpacityMaskFilter_7_);}
	.st24{mask:url(#mask-16_1_);fill-rule:evenodd;clip-rule:evenodd;fill:#FDED00;}
	.st25{fill-rule:evenodd;clip-rule:evenodd;fill:#02006C;}
</style>
<g id="页面-1">
	<g id="画板备份" transform="translate(-586.000000, -714.000000)">
		<g id="编组" transform="translate(586.000000, 714.000000)">
			<g transform="translate(5.600000, 24.800000)">
				<path id="Fill-1" class="st0" d="M17.6,34.5c-7.5,0-13.9,1.5-13.9,3.3c0,1.8,6.4,3.3,13.9,3.3c7.5,0,13.9-1.5,13.9-3.3
					C31.5,36,25.2,34.5,17.6,34.5 M17.6,41.4c-7.9,0-14.1-1.6-14.1-3.6c0-2,6.2-3.6,14.1-3.6c7.9,0,14.1,1.6,14.1,3.6
					C31.8,39.8,25.6,41.4,17.6,41.4"/>
				<g transform="translate(12.643902, 47.097705)">
					<defs>
						<filter id="Adobe_OpacityMaskFilter" filterUnits="userSpaceOnUse" x="0.5" y="0" width="21.9" height="5.6">
							<feColorMatrix  type="matrix" values="1 0 0 0 0  0 1 0 0 0  0 0 1 0 0  0 0 0 1 0"/>
						</filter>
					</defs>
					<mask maskUnits="userSpaceOnUse" x="0.5" y="0" width="21.9" height="5.6" id="mask-2_1_">
						<g class="st1">
							<polygon id="path-1_1_" class="st2" points="0.5,0 22.4,0 22.4,5.6 0.5,5.6 							"/>
						</g>
					</mask>
					<path id="Fill-3" class="st3" d="M11.5,0.3C5.6,0.3,0.7,1.4,0.7,2.8c0,1.4,4.9,2.6,10.7,2.6s10.7-1.2,10.7-2.6
						C22.2,1.4,17.3,0.3,11.5,0.3 M11.5,5.6c-6.1,0-11-1.2-11-2.8c0-1.6,4.8-2.8,11-2.8s11,1.2,11,2.8C22.4,4.4,17.6,5.6,11.5,5.6"
						/>
				</g>
				<path id="Fill-5" class="st4" d="M24.6,16.2c1.9,4.8,7.3,13.6,9.3,12.8c2-0.8-0.2-10.9-2.2-15.7c-1.9-4.8-5.1-8-7.1-7.2
					C22.7,6.8,22.7,11.4,24.6,16.2"/>
				<path id="Fill-7" class="st5" d="M0.3,18.5c0-10,7.1-18.2,15.8-18.2s15.8,8.1,15.8,18.2s-7.1,18.2-15.8,18.2S0.3,28.6,0.3,18.5"
					/>
			</g>
			<g transform="translate(5.600000, 24.800000)">
				<g>
					<defs>
						<filter id="Adobe_OpacityMaskFilter_1_" filterUnits="userSpaceOnUse" x="-4.6" y="16.2" width="12.7" height="25.8">
							<feColorMatrix  type="matrix" values="1 0 0 0 0  0 1 0 0 0  0 0 1 0 0  0 0 0 1 0"/>
						</filter>
					</defs>
					<mask maskUnits="userSpaceOnUse" x="-4.6" y="16.2" width="12.7" height="25.8" id="mask-4_1_">
						<g class="st6">
							<path id="path-3_1_" class="st2" d="M0.3,18.5c0,10,7.1,18.1,16,18.1l0,0c8.8,0,16-8.1,16-18.1l0,0c0-10-7.1-18.1-16-18.1
								l0,0C7.4,0.3,0.3,8.4,0.3,18.5"/>
						</g>
					</mask>
					<path id="Fill-9" class="st7" d="M6.6,27.6c-2.1,5.4-8,15.2-10.3,14.4c-2.2-0.9,0.1-12.1,2.1-17.4c2.1-5.4,5.6-9,7.8-8.1
						C8.5,17.2,8.7,22.2,6.6,27.6"/>
				</g>
				<g>
					<defs>
						<filter id="Adobe_OpacityMaskFilter_2_" filterUnits="userSpaceOnUse" x="-4.6" y="12.2" width="8.1" height="12.5">
							<feColorMatrix  type="matrix" values="1 0 0 0 0  0 1 0 0 0  0 0 1 0 0  0 0 0 1 0"/>
						</filter>
					</defs>
					<mask maskUnits="userSpaceOnUse" x="-4.6" y="12.2" width="8.1" height="12.5" id="mask-6_1_">
						<g class="st8">
							<path id="path-5_1_" class="st2" d="M0.3,18.5c0,10,7.1,18.1,16,18.1l0,0c8.8,0,16-8.1,16-18.1l0,0c0-10-7.1-18.1-16-18.1
								l0,0C7.4,0.3,0.3,8.4,0.3,18.5"/>
						</g>
					</mask>
					<path id="Fill-11" class="st9" d="M3.3,22c0.7-2.8-0.5-6.7-2.7-8.7c-2.1-2-4.4-1.3-5.1,1.5c-0.7,2.8,0.5,6.7,2.7,8.7
						S2.6,24.9,3.3,22"/>
				</g>
				<g>
					<defs>
						<filter id="Adobe_OpacityMaskFilter_3_" filterUnits="userSpaceOnUse" x="-5.7" y="10.6" width="10.2" height="15.7">
							<feColorMatrix  type="matrix" values="1 0 0 0 0  0 1 0 0 0  0 0 1 0 0  0 0 0 1 0"/>
						</filter>
					</defs>
					<mask maskUnits="userSpaceOnUse" x="-5.7" y="10.6" width="10.2" height="15.7" id="mask-8_1_">
						<g class="st10">
							<path id="path-7_1_" class="st2" d="M0.3,18.5c0,10,7.1,18.1,16,18.1l0,0c8.8,0,16-8.1,16-18.1l0,0c0-10-7.1-18.1-16-18.1
								l0,0C7.4,0.3,0.3,8.4,0.3,18.5"/>
						</g>
					</mask>
					<path id="Fill-13" class="st11" d="M-4.4,14.9c-0.7,2.8,0.5,6.7,2.7,8.7c2.1,2,4.4,1.3,5.1-1.5c0.7-2.8-0.5-6.7-2.7-8.7
						S-3.8,12-4.4,14.9 M-2.1,24.9c-2.7-2.5-4.2-7.4-3.3-11C-4.6,10.4-1.7,9.5,1,12s4.2,7.4,3.3,11C3.5,26.5,0.6,27.4-2.1,24.9"/>
				</g>
			</g>
			<path id="Fill-15" class="st12" d="M28.5,34.5c-3.6,2-9.4,2-13,0c-3.6-2-3.6-5.3,0-7.4c3.6-2,9.4-2,13,0
				C32.1,29.2,32.1,32.5,28.5,34.5"/>
			<g transform="translate(12.800000, 25.600000)">
				<defs>
					<filter id="Adobe_OpacityMaskFilter_4_" filterUnits="userSpaceOnUse" x="4.3" y="-1.1" width="20" height="12.4">
						<feColorMatrix  type="matrix" values="1 0 0 0 0  0 1 0 0 0  0 0 1 0 0  0 0 0 1 0"/>
					</filter>
				</defs>
				<mask maskUnits="userSpaceOnUse" x="4.3" y="-1.1" width="20" height="12.4" id="mask-10_1_">
					<g class="st13">
						<path id="path-9_1_" class="st2" d="M2.7,1.6c-3.5,2-3.5,5.2,0,7.2l0,0c3.5,2,9.2,2,12.7,0l0,0c3.5-2,3.5-5.2,0-7.2l0,0
							c-1.8-1-4.1-1.5-6.4-1.5l0,0C6.7,0.1,4.4,0.6,2.7,1.6L2.7,1.6z"/>
					</g>
				</mask>
				<path id="Fill-17" class="st14" d="M13.6,0.5c0,0,11.4,8.8-9.3,9.9l9.5,0.9l10.5-8.1L19-1.1L13.6,0.5z"/>
			</g>
			<g transform="translate(5.600000, 0.000000)">
				<path id="Fill-19" class="st15" d="M28.1,6.7c-2.5-1.5-4.6-0.3-4.6,2.7c0,2.9,2.1,6.5,4.6,8c2.5,1.5,4.6,0.3,4.6-2.7
					C32.8,11.7,30.7,8.2,28.1,6.7"/>
				<path id="Fill-21" class="st16" d="M27.7,6.4C27.7,6.4,27.7,6.4,27.7,6.4c-0.1,0-0.2-0.1-0.2-0.1c-0.1,0-0.1-0.1-0.2-0.1
					c0,0,0,0,0,0c-0.1,0-0.2-0.1-0.2-0.1c0,0-0.1,0-0.1,0c0,0,0,0-0.1,0c-0.1,0-0.1,0-0.2,0c0,0,0,0,0,0c-0.1,0-0.1,0-0.2,0
					c0,0,0,0-0.1,0c0,0-0.1,0-0.1,0c0,0,0,0-0.1,0c0,0-0.1,0-0.1,0c0,0,0,0,0,0c-0.1,0-0.1,0-0.2,0c0,0,0,0,0,0c0,0-0.1,0-0.1,0
					c0,0,0,0,0,0c-0.1,0-0.1,0-0.2,0c0,0,0,0,0,0c-0.1,0-0.1,0-0.2,0.1c0,0,0,0,0,0c0,0-0.1,0-0.1,0.1c0,0,0,0,0,0
					c-0.1,0-0.1,0.1-0.2,0.1l0,0c0,0,0,0,0,0l1.7-1c0,0,0,0,0,0c0,0,0.1,0,0.1-0.1c0,0,0,0,0,0c0,0,0,0,0.1,0c0,0,0,0,0,0
					c0,0,0,0,0,0c0.1,0,0.1,0,0.2-0.1c0,0,0,0,0,0c0,0,0,0,0,0c0,0,0.1,0,0.2,0c0,0,0,0,0,0c0,0,0,0,0,0c0,0,0.1,0,0.1,0
					c0,0,0,0,0,0c0.1,0,0.1,0,0.2,0c0,0,0,0,0,0c0,0,0,0,0,0c0,0,0.1,0,0.1,0c0,0,0,0,0.1,0c0,0,0,0,0,0C28,5,28,5,28,5
					c0,0,0,0,0.1,0c0.1,0,0.1,0,0.2,0c0,0,0,0,0,0h0c0.1,0,0.1,0,0.2,0c0,0,0,0,0.1,0c0,0,0.1,0,0.1,0c0,0,0,0,0,0
					c0.1,0,0.2,0,0.2,0.1c0,0,0,0,0,0c0.1,0,0.1,0.1,0.2,0.1c0,0,0,0,0,0c0.1,0,0.1,0,0.2,0.1c0,0,0,0,0,0c0.1,0,0.1,0.1,0.2,0.1
					c0,0,0,0,0.1,0c0.1,0,0.1,0.1,0.2,0.1c0.1,0,0.1,0.1,0.2,0.1c0,0,0,0,0.1,0c0,0,0.1,0.1,0.1,0.1c0,0,0.1,0,0.1,0.1
					c0,0,0.1,0.1,0.1,0.1c0,0,0.1,0,0.1,0.1c0,0,0.1,0.1,0.1,0.1c0,0,0,0,0.1,0.1c0.1,0,0.1,0.1,0.2,0.1c0,0,0,0,0,0
					c0.1,0.1,0.1,0.1,0.2,0.2c0,0,0,0,0.1,0.1c0,0,0.1,0.1,0.1,0.1c0,0,0,0,0,0c0.1,0.1,0.1,0.1,0.2,0.2c0,0,0,0,0,0
					c0.1,0.1,0.2,0.2,0.2,0.3c0,0,0,0,0,0c0,0,0.1,0.1,0.1,0.1c0,0,0.1,0.1,0.1,0.1c0,0,0.1,0.1,0.1,0.1c0,0,0.1,0.1,0.1,0.1
					c0,0,0,0,0,0c0,0,0,0,0,0c0.1,0.1,0.2,0.2,0.3,0.4c0,0,0,0,0,0c0,0,0,0,0,0c0.1,0.1,0.2,0.2,0.2,0.4c0,0,0,0,0,0c0,0,0,0,0,0.1
					C33,8.8,33,8.9,33.1,9c0,0,0,0,0,0c0,0,0,0,0,0c0.1,0.1,0.1,0.2,0.2,0.3c0,0,0,0,0,0c0,0,0,0,0,0.1c0,0.1,0.1,0.2,0.1,0.3
					c0,0,0,0,0,0.1c0,0,0,0,0,0c0.1,0.1,0.1,0.2,0.2,0.4c0,0,0,0,0,0c0,0,0,0,0,0c0,0.1,0.1,0.2,0.1,0.3c0,0,0,0,0,0.1c0,0,0,0,0,0
					c0,0.1,0.1,0.3,0.1,0.4c0,0,0,0,0,0c0,0.1,0.1,0.2,0.1,0.3c0,0,0,0,0,0.1c0,0,0,0.1,0,0.1c0,0,0,0,0,0c0,0,0,0.1,0,0.1
					c0,0.1,0,0.1,0,0.2c0,0,0,0.1,0,0.1c0,0,0,0.1,0,0.1c0,0,0,0,0,0.1c0,0.1,0,0.1,0,0.2c0,0,0,0.1,0,0.1c0,0.1,0,0.1,0,0.2
					c0,0,0,0.1,0,0.1c0,0,0,0,0,0c0,0,0,0.1,0,0.1c0,0.1,0,0.1,0,0.2c0,0,0,0.1,0,0.1c0,0.1,0,0.1,0,0.2c0,0,0,0.1,0,0.1
					c0,0.1,0,0.2,0,0.3c0,1.5-0.5,2.5-1.3,3l-1.7,1c0.8-0.5,1.3-1.5,1.3-3c0-0.1,0-0.2,0-0.3c0,0,0-0.1,0-0.1c0-0.1,0-0.1,0-0.2
					c0,0,0-0.1,0-0.1c0-0.1,0-0.1,0-0.2c0,0,0-0.1,0-0.1c0,0,0-0.1,0-0.1c0-0.1,0-0.1,0-0.2c0,0,0-0.1,0-0.1c0-0.1,0-0.1,0-0.2
					c0,0,0-0.1,0-0.1c0,0,0-0.1,0-0.1c0-0.1,0-0.1,0-0.2c0,0,0-0.1,0-0.1c0-0.1,0-0.1-0.1-0.2c0,0,0,0,0-0.1c0-0.1-0.1-0.2-0.1-0.3
					c0-0.1-0.1-0.3-0.1-0.4c0,0,0-0.1,0-0.1c0-0.1-0.1-0.2-0.1-0.3c0,0,0,0,0-0.1c-0.1-0.1-0.1-0.2-0.2-0.4c0,0,0-0.1,0-0.1
					c0-0.1-0.1-0.2-0.1-0.3c0,0,0-0.1,0-0.1c-0.1-0.1-0.1-0.2-0.2-0.3c0,0,0,0,0-0.1c-0.1-0.1-0.1-0.2-0.2-0.3c0,0,0-0.1-0.1-0.1
					C31,9.5,31,9.4,30.9,9.3c0,0,0,0,0-0.1c-0.1-0.1-0.2-0.2-0.3-0.4c0,0,0,0,0,0c0,0-0.1-0.1-0.1-0.1c0,0-0.1-0.1-0.1-0.1
					c0,0-0.1-0.1-0.1-0.1c0,0-0.1-0.1-0.1-0.1c-0.1-0.1-0.2-0.2-0.2-0.3c0,0,0,0,0,0C29.8,8,29.8,8,29.7,7.9c0,0-0.1-0.1-0.1-0.1
					c0,0,0,0-0.1-0.1c-0.1-0.1-0.1-0.1-0.2-0.2c0,0,0,0,0,0c-0.1,0-0.1-0.1-0.2-0.1c0,0,0,0-0.1-0.1c0,0-0.1-0.1-0.1-0.1
					c0,0-0.1,0-0.1-0.1c0,0-0.1-0.1-0.1-0.1c0,0-0.1,0-0.1-0.1c0,0-0.1-0.1-0.1-0.1c0,0,0,0-0.1,0c-0.1,0-0.1-0.1-0.2-0.1
					c-0.1,0-0.1-0.1-0.2-0.1c0,0,0,0-0.1,0C27.8,6.5,27.8,6.5,27.7,6.4"/>
				<path id="Fill-23" class="st17" d="M29.9,12.9c0-0.1,0-0.2,0-0.2c0,0,0,0,0-0.1c0,0,0-0.1,0-0.1c0,0,0,0,0-0.1c0,0,0-0.1,0-0.1
					c0,0,0,0,0-0.1c0-0.1,0-0.2-0.1-0.3c0,0,0,0,0,0c0-0.1,0-0.2-0.1-0.2l0,0c0-0.1-0.1-0.2-0.1-0.2c0,0,0,0,0-0.1
					c0-0.1-0.1-0.1-0.1-0.2c0,0,0,0,0,0c0-0.1-0.1-0.1-0.1-0.2c0,0,0,0,0-0.1c0-0.1-0.1-0.1-0.1-0.2c0,0,0,0,0-0.1
					c0-0.1-0.1-0.1-0.1-0.2c0,0,0,0,0,0c0-0.1-0.1-0.1-0.1-0.2c0,0,0,0,0-0.1c0-0.1-0.1-0.1-0.1-0.2c0,0,0,0,0,0
					c0-0.1-0.1-0.1-0.2-0.2c0,0,0,0,0,0c-0.1-0.1-0.1-0.2-0.2-0.2c0,0,0,0,0,0c0,0-0.1-0.1-0.1-0.1c0,0,0,0,0,0c0,0-0.1-0.1-0.1-0.1
					c0,0,0,0,0,0C28.1,9.1,28,9.1,27.9,9c0,0,0,0,0,0c-0.1-0.1-0.1-0.1-0.2-0.2c0,0,0,0,0,0c-0.1-0.1-0.1-0.1-0.2-0.1c0,0,0,0,0,0
					c-0.1,0-0.1-0.1-0.2-0.1c-0.1,0-0.1-0.1-0.2-0.1c0,0,0,0,0,0c0,0-0.1,0-0.1-0.1c0,0,0,0,0,0c0,0-0.1,0-0.1,0c0,0,0,0,0,0
					c0,0-0.1,0-0.1,0c0,0-0.1,0-0.1,0c0,0,0,0,0,0c0,0-0.1,0-0.1,0c-0.1,0-0.1,0-0.2,0c0,0,0,0,0,0c-0.1,0-0.1,0-0.2,0c0,0,0,0,0,0
					c0,0-0.1,0-0.1,0c0,0,0,0,0,0c0,0-0.1,0-0.1,0c0,0,0,0,0,0c0,0-0.1,0-0.1,0c0,0,0,0,0,0c0,0-0.1,0-0.1,0c0,0,0,0,0,0l0.8-0.5
					c0,0,0,0,0,0c0,0,0,0,0,0c0,0,0.1,0,0.1,0c0,0,0,0,0,0c0,0,0,0,0,0c0,0,0.1,0,0.1,0c0,0,0,0,0,0h0c0,0,0.1,0,0.1,0c0,0,0,0,0,0
					c0,0,0,0,0,0c0,0,0.1,0,0.1,0c0,0,0,0,0,0h0c0.1,0,0.1,0,0.2,0c0,0,0,0,0,0c0,0,0,0,0,0c0.1,0,0.1,0,0.2,0h0c0,0,0.1,0,0.1,0
					c0,0,0,0,0,0c0,0,0.1,0,0.1,0c0,0,0,0,0,0c0,0,0.1,0,0.1,0c0,0,0,0,0,0c0,0,0.1,0,0.1,0c0,0,0,0,0,0c0,0,0,0,0,0
					c0,0,0.1,0,0.1,0.1c0,0,0,0,0,0C27.9,8,28,8,28.1,8c0.1,0,0.1,0.1,0.2,0.1c0,0,0,0,0,0c0.1,0,0.1,0.1,0.2,0.1c0,0,0,0,0,0
					c0.1,0.1,0.1,0.1,0.2,0.2c0,0,0,0,0,0c0.1,0.1,0.1,0.1,0.2,0.2c0,0,0,0,0,0c0,0,0,0,0,0c0,0,0.1,0.1,0.1,0.1c0,0,0,0,0,0
					c0,0,0.1,0.1,0.1,0.1c0,0,0,0,0,0c0,0,0,0,0,0c0.1,0.1,0.1,0.2,0.2,0.2c0,0,0,0,0,0c0,0,0,0,0,0c0.1,0.1,0.1,0.1,0.2,0.2
					c0,0,0,0,0,0c0,0,0,0,0,0c0,0.1,0.1,0.1,0.1,0.2c0,0,0,0,0,0c0,0,0,0,0,0c0,0.1,0.1,0.1,0.1,0.2c0,0,0,0,0,0c0,0,0,0,0,0
					c0,0.1,0.1,0.1,0.1,0.2c0,0,0,0,0,0c0,0,0,0,0,0c0,0.1,0.1,0.1,0.1,0.2c0,0,0,0,0,0c0,0,0,0,0,0c0,0.1,0.1,0.1,0.1,0.2l0,0
					c0,0,0,0,0,0c0,0.1,0.1,0.1,0.1,0.2c0,0,0,0,0,0c0,0,0,0,0,0c0,0.1,0.1,0.2,0.1,0.2c0,0,0,0,0,0c0,0,0,0,0,0
					c0,0.1,0,0.2,0.1,0.2c0,0,0,0,0,0c0,0,0,0,0,0c0,0.1,0,0.2,0.1,0.3c0,0,0,0,0,0c0,0,0,0,0,0c0,0,0,0.1,0,0.1c0,0,0,0,0,0.1
					c0,0,0,0.1,0,0.1c0,0,0,0,0,0.1c0,0,0,0,0,0c0,0.1,0,0.2,0,0.2c0,0,0,0,0,0c0,0.1,0,0.2,0,0.2c0,0.9-0.3,1.5-0.8,1.7L29.2,15
					c0.5-0.3,0.8-0.9,0.8-1.7C29.9,13.1,29.9,13.1,29.9,12.9C29.9,13,29.9,12.9,29.9,12.9"/>
				<path id="Fill-25" class="st18" d="M27.2,8.5c-1.5-0.9-2.7-0.2-2.7,1.6c0,1.7,1.2,3.8,2.7,4.7c1.5,0.9,2.7,0.2,2.7-1.6
					C29.9,11.5,28.7,9.4,27.2,8.5"/>
				<path id="Fill-27" class="st5" d="M32.5,16.7c0-8.9-7.2-16.1-16-16.1c-8.8,0-16,7.2-16,16.1c0,8.9,7.2,16.1,16,16.1
					C25.4,32.8,32.5,25.6,32.5,16.7"/>
			</g>
			<g transform="translate(5.600000, 0.000000)">
				<g>
					<defs>
						<filter id="Adobe_OpacityMaskFilter_5_" filterUnits="userSpaceOnUse" x="0.5" y="11.4" width="3.4" height="13.9">
							<feColorMatrix  type="matrix" values="1 0 0 0 0  0 1 0 0 0  0 0 1 0 0  0 0 0 1 0"/>
						</filter>
					</defs>
					<mask maskUnits="userSpaceOnUse" x="0.5" y="11.4" width="3.4" height="13.9" id="mask-12_1_">
						<g class="st19">
							<path id="path-11_1_" class="st2" d="M16.6,0.7C7.7,0.7,0.5,7.9,0.5,16.8l0,0c0,8.9,7.3,16.1,16.2,16.1l0,0
								c8.9,0,16.1-7.2,16.1-16.1l0,0C32.7,7.9,25.5,0.7,16.6,0.7L16.6,0.7"/>
						</g>
					</mask>
					<path id="Fill-29" class="st20" d="M0.5,11.4c0,1.5,0.5,3.1,1.6,4.5c1.6,2.3,1.7,4.1,1.8,4.7l0,3c-0.1,1.7-0.8,2.1-1.8,1.1
						c-1.1-1.4-1.6-3-1.6-4.5L0.5,11.4"/>
				</g>
				<g>
					<defs>
						<filter id="Adobe_OpacityMaskFilter_6_" filterUnits="userSpaceOnUse" x="0.5" y="11.4" width="3.4" height="13.9">
							<feColorMatrix  type="matrix" values="1 0 0 0 0  0 1 0 0 0  0 0 1 0 0  0 0 0 1 0"/>
						</filter>
					</defs>
					<mask maskUnits="userSpaceOnUse" x="0.5" y="11.4" width="3.4" height="13.9" id="mask-14_1_">
						<g class="st21">
							<path id="path-13_1_" class="st2" d="M16.6,0.7C7.7,0.7,0.5,7.9,0.5,16.8l0,0c0,8.9,7.3,16.1,16.2,16.1l0,0
								c8.9,0,16.1-7.2,16.1-16.1l0,0C32.7,7.9,25.5,0.7,16.6,0.7L16.6,0.7"/>
						</g>
					</mask>
					<path id="Fill-31" class="st22" d="M0.5,11.4l0,8.8c0,1.5,0.5,3.1,1.6,4.5c1.2,1.3,1.7,0,1.8-1.1c0-0.9,0-2.1,0-3
						c0-0.7-0.2-2.4-1.8-4.7C1.1,14.5,0.5,12.9,0.5,11.4 M1.1,16.9c1.8,4.3,0.6,3.8,0.6,3.8c-0.4-0.1-0.7-0.9-0.8-1.5
						c-0.3-1.3-0.3-3-0.2-3.1C0.7,16.1,0.7,16.1,1.1,16.9"/>
				</g>
				<g>
					<defs>
						<filter id="Adobe_OpacityMaskFilter_7_" filterUnits="userSpaceOnUse" x="0.6" y="16.1" width="1.5" height="4.6">
							<feColorMatrix  type="matrix" values="1 0 0 0 0  0 1 0 0 0  0 0 1 0 0  0 0 0 1 0"/>
						</filter>
					</defs>
					<mask maskUnits="userSpaceOnUse" x="0.6" y="16.1" width="1.5" height="4.6" id="mask-16_1_">
						<g class="st23">
							<path id="path-15_1_" class="st2" d="M16.6,0.7C7.7,0.7,0.5,7.9,0.5,16.8c0,8.9,7.3,16.1,16.2,16.1c8.9,0,16.1-7.2,16.1-16.1
								C32.7,7.9,25.5,0.7,16.6,0.7l6.6,16.1"/>
						</g>
					</mask>
					<path id="Fill-33" class="st24" d="M1,20c0.5,1,0.8,0.8,0.9,0.5c0.3-0.9-1-4.4-1.3-4.4C0.5,16.3,0.5,18.8,1,20"/>
				</g>
			</g>
			<g transform="translate(0.000000, 12.800000)">
				<path id="Fill-35" class="st15" d="M19.9,1.7c-2.5-1.5-4.6-0.3-4.6,2.6c0,2.9,2.1,6.5,4.6,8c2.5,1.5,4.6,0.3,4.6-2.6
					C24.5,6.8,22.5,3.2,19.9,1.7"/>
				<path id="Fill-37" class="st16" d="M19.5,1.5C19.5,1.5,19.5,1.5,19.5,1.5c-0.1,0-0.2-0.1-0.2-0.1c-0.1,0-0.1-0.1-0.2-0.1
					c0,0,0,0,0,0c-0.1,0-0.2-0.1-0.2-0.1c0,0-0.1,0-0.1,0c0,0,0,0-0.1,0c-0.1,0-0.1,0-0.2,0c0,0,0,0,0,0c-0.1,0-0.1,0-0.2,0
					c0,0,0,0-0.1,0c0,0-0.1,0-0.1,0c0,0,0,0-0.1,0c0,0-0.1,0-0.1,0c0,0,0,0,0,0c-0.1,0-0.1,0-0.2,0c0,0,0,0,0,0c0,0-0.1,0-0.1,0
					c0,0,0,0,0,0c-0.1,0-0.1,0-0.2,0c0,0,0,0,0,0c-0.1,0-0.1,0-0.2,0.1c0,0,0,0,0,0c0,0-0.1,0-0.1,0.1c0,0,0,0,0,0
					c-0.1,0-0.1,0.1-0.2,0.1l0,0c0,0,0,0,0,0l1.7-1c0,0,0,0,0,0c0,0,0.1,0,0.1-0.1c0,0,0,0,0,0c0,0,0,0,0.1,0c0,0,0,0,0,0
					c0,0,0,0,0,0c0.1,0,0.1,0,0.2-0.1c0,0,0,0,0,0c0,0,0,0,0,0c0.1,0,0.1,0,0.2,0c0,0,0,0,0,0c0,0,0,0,0,0c0,0,0.1,0,0.1,0
					c0,0,0,0,0,0c0.1,0,0.1,0,0.2,0c0,0,0,0,0,0c0,0,0,0,0,0c0,0,0.1,0,0.1,0c0,0,0,0,0.1,0c0,0,0,0,0,0c0,0,0.1,0,0.1,0
					c0,0,0,0,0.1,0c0.1,0,0.1,0,0.2,0c0,0,0,0,0,0h0c0.1,0,0.1,0,0.2,0c0,0,0,0,0.1,0c0,0,0.1,0,0.1,0c0,0,0,0,0,0
					c0.1,0,0.2,0,0.2,0.1c0,0,0,0,0,0c0.1,0,0.1,0.1,0.2,0.1c0,0,0,0,0,0c0.1,0,0.1,0,0.2,0.1c0,0,0,0,0,0c0.1,0,0.1,0.1,0.2,0.1
					c0,0,0,0,0.1,0c0.1,0,0.1,0.1,0.2,0.1c0.1,0,0.1,0.1,0.2,0.1c0,0,0,0,0.1,0c0,0,0.1,0.1,0.1,0.1c0,0,0.1,0,0.1,0.1
					c0,0,0.1,0.1,0.1,0.1c0,0,0.1,0,0.1,0.1c0,0,0.1,0.1,0.1,0.1c0,0,0,0,0.1,0.1c0.1,0,0.1,0.1,0.2,0.1c0,0,0,0,0,0
					C22.9,1.6,23,1.7,23,1.8c0,0,0,0,0.1,0.1c0,0,0.1,0.1,0.1,0.1c0,0,0,0,0,0c0.1,0.1,0.1,0.1,0.2,0.2l0,0c0.1,0.1,0.2,0.2,0.2,0.3
					c0,0,0,0,0,0c0,0,0.1,0.1,0.1,0.1c0,0,0.1,0.1,0.1,0.1c0,0,0.1,0.1,0.1,0.1c0,0,0.1,0.1,0.1,0.1c0,0,0,0,0,0c0,0,0,0,0,0
					c0.1,0.1,0.2,0.2,0.3,0.4c0,0,0,0,0,0c0,0,0,0,0,0c0.1,0.1,0.2,0.2,0.2,0.3c0,0,0,0,0,0c0,0,0,0,0,0.1c0.1,0.1,0.1,0.2,0.2,0.3
					c0,0,0,0,0,0c0,0,0,0,0,0c0.1,0.1,0.1,0.2,0.2,0.3c0,0,0,0,0,0c0,0,0,0,0,0.1c0,0.1,0.1,0.2,0.1,0.3c0,0,0,0,0,0.1c0,0,0,0,0,0
					c0.1,0.1,0.1,0.2,0.2,0.4c0,0,0,0,0,0c0,0,0,0,0,0c0,0.1,0.1,0.2,0.1,0.3c0,0,0,0,0,0.1c0,0,0,0,0,0c0,0.1,0.1,0.3,0.1,0.4
					c0,0,0,0,0,0c0,0.1,0.1,0.2,0.1,0.3c0,0,0,0,0,0.1c0,0,0,0.1,0,0.1c0,0,0,0,0,0c0,0,0,0.1,0,0.1c0,0.1,0,0.1,0,0.2
					c0,0,0,0.1,0,0.1c0,0,0,0.1,0,0.1c0,0,0,0,0,0.1c0,0.1,0,0.1,0,0.2c0,0,0,0.1,0,0.1c0,0.1,0,0.1,0,0.2c0,0,0,0.1,0,0.1
					c0,0,0,0,0,0c0,0,0,0.1,0,0.1c0,0.1,0,0.1,0,0.2c0,0,0,0.1,0,0.1c0,0.1,0,0.1,0,0.2c0,0,0,0.1,0,0.1c0,0.1,0,0.2,0,0.3
					c0,1.5-0.5,2.5-1.3,3l-1.7,1c0.8-0.5,1.3-1.5,1.3-3c0-0.1,0-0.2,0-0.3c0,0,0-0.1,0-0.1c0-0.1,0-0.1,0-0.2c0,0,0-0.1,0-0.1
					c0-0.1,0-0.1,0-0.2c0,0,0-0.1,0-0.1c0,0,0-0.1,0-0.1c0-0.1,0-0.1,0-0.2c0,0,0-0.1,0-0.1c0-0.1,0-0.1,0-0.2c0,0,0-0.1,0-0.1
					c0,0,0-0.1,0-0.1c0-0.1,0-0.1,0-0.2c0,0,0-0.1,0-0.1c0-0.1,0-0.1-0.1-0.2c0,0,0,0,0-0.1c0-0.1-0.1-0.2-0.1-0.3
					C24,7,24,6.9,23.9,6.8c0,0,0-0.1,0-0.1c0-0.1-0.1-0.2-0.1-0.3c0,0,0,0,0-0.1c-0.1-0.1-0.1-0.2-0.2-0.4c0,0,0-0.1,0-0.1
					c0-0.1-0.1-0.2-0.1-0.3c0,0,0-0.1,0-0.1c-0.1-0.1-0.1-0.2-0.2-0.3c0,0,0,0,0-0.1C23.1,5,23,4.9,23,4.8c0,0,0-0.1-0.1-0.1
					c-0.1-0.1-0.2-0.2-0.2-0.3c0,0,0,0,0-0.1c-0.1-0.1-0.2-0.2-0.3-0.4c0,0,0,0,0,0c0,0-0.1-0.1-0.1-0.1c0,0-0.1-0.1-0.1-0.1
					c0,0-0.1-0.1-0.1-0.1c0,0-0.1-0.1-0.1-0.1c-0.1-0.1-0.2-0.2-0.2-0.3c0,0,0,0,0,0C21.6,3.1,21.6,3,21.5,3c0,0-0.1-0.1-0.1-0.1
					c0,0,0,0-0.1-0.1c-0.1-0.1-0.1-0.1-0.2-0.2c0,0,0,0,0,0c-0.1,0-0.1-0.1-0.2-0.1c0,0,0,0-0.1-0.1c0,0-0.1-0.1-0.1-0.1
					c0,0-0.1,0-0.1-0.1c0,0-0.1-0.1-0.1-0.1c0,0-0.1,0-0.1-0.1c0,0-0.1-0.1-0.1-0.1c0,0,0,0-0.1,0c-0.1,0-0.1-0.1-0.2-0.1
					c-0.1,0-0.1-0.1-0.2-0.1c0,0,0,0-0.1,0C19.6,1.6,19.5,1.5,19.5,1.5"/>
				<path id="Fill-39" class="st25" d="M21.7,8c0-0.1,0-0.2,0-0.2c0,0,0,0,0-0.1c0,0,0-0.1,0-0.1c0,0,0,0,0-0.1c0,0,0-0.1,0-0.1
					c0,0,0,0,0-0.1c0-0.1,0-0.2-0.1-0.3c0,0,0,0,0,0c0-0.1,0-0.2-0.1-0.2c0,0,0,0,0,0c0-0.1-0.1-0.2-0.1-0.2l0-0.1
					c0-0.1-0.1-0.1-0.1-0.2c0,0,0,0,0,0c0-0.1-0.1-0.1-0.1-0.2c0,0,0,0,0-0.1c0-0.1-0.1-0.1-0.1-0.2c0,0,0,0,0,0
					c0-0.1-0.1-0.1-0.1-0.2c0,0,0,0,0,0c0-0.1-0.1-0.1-0.1-0.2c0,0,0,0,0,0c0-0.1-0.1-0.1-0.1-0.2c0,0,0,0,0,0
					c0-0.1-0.1-0.1-0.2-0.2c0,0,0,0,0,0c-0.1-0.1-0.1-0.2-0.2-0.2c0,0,0,0,0,0c0,0-0.1-0.1-0.1-0.1c0,0,0,0,0,0c0,0-0.1-0.1-0.1-0.1
					c0,0,0,0,0,0c-0.1-0.1-0.1-0.1-0.2-0.2c0,0,0,0,0,0C19.7,4,19.6,4,19.5,3.9c0,0,0,0,0,0c-0.1,0-0.1-0.1-0.2-0.1c0,0,0,0,0,0
					c-0.1,0-0.1-0.1-0.2-0.1c-0.1,0-0.1-0.1-0.2-0.1c0,0,0,0,0,0c0,0-0.1,0-0.1-0.1c0,0,0,0,0,0c0,0-0.1,0-0.1,0c0,0,0,0,0,0
					c0,0-0.1,0-0.1,0c0,0-0.1,0-0.1,0c0,0,0,0,0,0c0,0-0.1,0-0.1,0c-0.1,0-0.1,0-0.2,0c0,0,0,0,0,0c-0.1,0-0.1,0-0.2,0c0,0,0,0,0,0
					c0,0-0.1,0-0.1,0c0,0,0,0,0,0c0,0-0.1,0-0.1,0l0,0c0,0-0.1,0-0.1,0c0,0,0,0,0,0c0,0-0.1,0-0.1,0c0,0,0,0,0,0l0.8-0.5
					c0,0,0,0,0,0c0,0,0,0,0,0c0,0,0.1,0,0.1,0c0,0,0,0,0,0c0,0,0,0,0,0c0,0,0.1,0,0.1,0l0,0h0c0,0,0.1,0,0.1,0c0,0,0,0,0,0
					c0,0,0,0,0,0c0,0,0.1,0,0.1,0c0,0,0,0,0,0h0c0.1,0,0.1,0,0.2,0c0,0,0,0,0,0c0,0,0,0,0,0c0.1,0,0.1,0,0.2,0h0c0,0,0.1,0,0.1,0
					c0,0,0,0,0,0c0,0,0.1,0,0.1,0c0,0,0,0,0,0c0,0,0.1,0,0.1,0c0,0,0,0,0,0c0,0,0.1,0,0.1,0c0,0,0,0,0,0c0,0,0,0,0,0
					c0,0,0.1,0,0.1,0.1c0,0,0,0,0,0c0.1,0,0.1,0.1,0.2,0.1c0.1,0,0.1,0.1,0.2,0.1c0,0,0,0,0,0c0.1,0,0.1,0.1,0.2,0.1c0,0,0,0,0,0
					c0.1,0.1,0.1,0.1,0.2,0.2c0,0,0,0,0,0c0.1,0.1,0.1,0.1,0.2,0.2c0,0,0,0,0,0c0,0,0,0,0,0c0,0,0.1,0.1,0.1,0.1c0,0,0,0,0,0
					C21,4,21,4.1,21,4.1c0,0,0,0,0,0c0,0,0,0,0,0c0.1,0.1,0.1,0.2,0.2,0.2c0,0,0,0,0,0c0,0,0,0,0,0c0.1,0.1,0.1,0.1,0.1,0.2
					c0,0,0,0,0,0c0,0,0,0,0,0c0,0.1,0.1,0.1,0.1,0.2c0,0,0,0,0,0c0,0,0,0,0,0c0,0.1,0.1,0.1,0.1,0.2c0,0,0,0,0,0c0,0,0,0,0,0
					c0,0.1,0.1,0.1,0.1,0.2c0,0,0,0,0,0c0,0,0,0,0,0c0,0.1,0.1,0.1,0.1,0.2c0,0,0,0,0,0l0,0c0,0.1,0.1,0.1,0.1,0.2l0,0c0,0,0,0,0,0
					c0,0.1,0.1,0.1,0.1,0.2c0,0,0,0,0,0c0,0,0,0,0,0c0,0.1,0.1,0.1,0.1,0.2c0,0,0,0,0,0c0,0,0,0,0,0c0,0.1,0,0.2,0.1,0.2
					c0,0,0,0,0,0c0,0,0,0,0,0c0,0.1,0,0.2,0.1,0.3c0,0,0,0,0,0c0,0,0,0,0,0c0,0,0,0.1,0,0.1c0,0,0,0,0,0.1c0,0,0,0.1,0,0.1
					c0,0,0,0,0,0.1c0,0,0,0,0,0c0,0.1,0,0.2,0,0.2c0,0,0,0,0,0c0,0.1,0,0.2,0,0.2c0,0.9-0.3,1.5-0.8,1.7L20.9,10
					c0.5-0.3,0.8-0.9,0.8-1.7C21.7,8.2,21.7,8.1,21.7,8C21.7,8,21.7,8,21.7,8"/>
				<path id="Fill-41" class="st0" d="M19,3.6c-1.5-0.9-2.7-0.2-2.7,1.5c0,1.7,1.2,3.8,2.7,4.7c1.5,0.9,2.7,0.2,2.7-1.5
					C21.7,6.5,20.5,4.4,19,3.6"/>
				<path id="Fill-43" class="st5" d="M11.3,38.5c-2.1,5.4-8,15.3-10.2,14.4C-1.1,52,1.2,40.7,3.2,35.4c2.1-5.4,5.6-9,7.8-8.2
					C13.2,28.1,13.3,33.1,11.3,38.5"/>
			</g>
		</g>
	</g>
</g>
</svg>
