<?xml version="1.0" encoding="utf-8"?>
<!-- Generator: Adobe Illustrator 24.1.0, SVG Export Plug-In . SVG Version: 6.00 Build 0)  -->
<svg version="1.1" id="图层_1" xmlns="http://www.w3.org/2000/svg" xmlns:xlink="http://www.w3.org/1999/xlink" x="0px" y="0px"
	 viewBox="0 0 46 55" style="enable-background:new 0 0 46 55;" xml:space="preserve">
<style type="text/css">
	.st0{filter:url(#Adobe_OpacityMaskFilter);}
	.st1{fill-rule:evenodd;clip-rule:evenodd;fill:#FFFFFF;}
	.st2{mask:url(#mask-2_1_);fill-rule:evenodd;clip-rule:evenodd;fill:#021F66;}
	.st3{filter:url(#Adobe_OpacityMaskFilter_1_);}
	.st4{mask:url(#mask-4_1_);fill-rule:evenodd;clip-rule:evenodd;fill:#021F66;}
	.st5{fill-rule:evenodd;clip-rule:evenodd;fill:#021F66;}
	.st6{fill-rule:evenodd;clip-rule:evenodd;fill:#2A53D3;}
	.st7{fill-rule:evenodd;clip-rule:evenodd;fill:#343B65;}
	.st8{fill-rule:evenodd;clip-rule:evenodd;fill:#1531AA;}
	.st9{filter:url(#Adobe_OpacityMaskFilter_2_);}
	.st10{mask:url(#mask-6_1_);fill-rule:evenodd;clip-rule:evenodd;fill:#2B5FE0;}
	.st11{filter:url(#Adobe_OpacityMaskFilter_3_);}
	.st12{mask:url(#mask-8_1_);fill-rule:evenodd;clip-rule:evenodd;fill:#2A53D3;}
	.st13{filter:url(#Adobe_OpacityMaskFilter_4_);}
	.st14{mask:url(#mask-10_1_);fill-rule:evenodd;clip-rule:evenodd;fill:#1531AA;}
</style>
<g id="页面-1">
	<g id="画板备份" transform="translate(-740.000000, -627.000000)">
		<g id="编组" transform="translate(740.533659, 627.690665)">
			<g transform="translate(33.785048, 50.600879)">
				<defs>
					<filter id="Adobe_OpacityMaskFilter" filterUnits="userSpaceOnUse" x="0.5" y="0.2" width="2.5" height="2.5">
						<feColorMatrix  type="matrix" values="1 0 0 0 0  0 1 0 0 0  0 0 1 0 0  0 0 0 1 0"/>
					</filter>
				</defs>
				<mask maskUnits="userSpaceOnUse" x="0.5" y="0.2" width="2.5" height="2.5" id="mask-2_1_">
					<g class="st0">
						<polygon id="path-1_1_" class="st1" points="0.5,0.2 3.1,0.2 3.1,2.7 0.5,2.7 						"/>
					</g>
				</mask>
				<path id="Fill-1" class="st2" d="M0.5,1.4c0,0.7,0.6,1.3,1.3,1.3c0.7,0,1.3-0.6,1.3-1.3c0-0.7-0.6-1.3-1.3-1.3
					C1.1,0.2,0.5,0.7,0.5,1.4"/>
			</g>
			<g transform="translate(10.811215, 50.600879)">
				<defs>
					<filter id="Adobe_OpacityMaskFilter_1_" filterUnits="userSpaceOnUse" x="0.3" y="0.2" width="2.5" height="2.5">
						<feColorMatrix  type="matrix" values="1 0 0 0 0  0 1 0 0 0  0 0 1 0 0  0 0 0 1 0"/>
					</filter>
				</defs>
				<mask maskUnits="userSpaceOnUse" x="0.3" y="0.2" width="2.5" height="2.5" id="mask-4_1_">
					<g class="st3">
						<polygon id="path-3_1_" class="st1" points="0.3,0.2 2.8,0.2 2.8,2.7 0.3,2.7 						"/>
					</g>
				</mask>
				<path id="Fill-3" class="st4" d="M0.3,1.4c0,0.7,0.6,1.3,1.3,1.3s1.3-0.6,1.3-1.3c0-0.7-0.6-1.3-1.3-1.3S0.3,0.7,0.3,1.4"/>
			</g>
			<path id="Fill-5" class="st5" d="M34.3,38.7c0,0.7,0.6,1.3,1.3,1.3c0.7,0,1.3-0.6,1.3-1.3s-0.6-1.3-1.3-1.3
				C34.9,37.5,34.3,38,34.3,38.7"/>
			<path id="Fill-7" class="st5" d="M11.1,38.7c0,0.7,0.6,1.3,1.3,1.3c0.7,0,1.3-0.6,1.3-1.3s-0.6-1.3-1.3-1.3
				C11.7,37.5,11.1,38,11.1,38.7"/>
			<path id="Fill-9" class="st5" d="M11.4,37.4l7.3,4.2v1.5l-7.3-4.2c-1.1-0.6-1.6-1.9-1.2-3.1C10.4,36.5,10.8,37,11.4,37.4"/>
			<path id="Fill-11" class="st5" d="M36.6,37.4c0.6-0.3,1-0.9,1.2-1.5c0.4,1.1-0.1,2.4-1.2,3.1l-7.3,4.2v-1.5L36.6,37.4z"/>
			<path id="Fill-13" class="st5" d="M10.4,49.5c0.5,0.8,1.4,1.3,2.3,1.3c0.4,0,0.9-0.1,1.3-0.4l10-5.8l10,5.8
				c0.4,0.2,0.9,0.4,1.3,0.4c0.9,0,1.8-0.5,2.3-1.3c0.1-0.2,0.2-0.4,0.2-0.5c0.2,0.7,0.1,1.4-0.2,2.1c-0.5,0.8-1.4,1.3-2.3,1.3
				c-0.4,0-0.9-0.1-1.3-0.4l-10-5.8L14,52c-0.4,0.2-0.9,0.4-1.3,0.4c-0.9,0-1.8-0.5-2.3-1.3c-0.4-0.7-0.4-1.4-0.2-2.1
				C10.2,49.1,10.3,49.3,10.4,49.5"/>
			<path id="Fill-15" class="st6" d="M35.3,50.8c-0.4,0-0.9-0.1-1.3-0.4l-10-5.8l-10,5.8c-0.4,0.2-0.9,0.4-1.3,0.4
				c-0.9,0-1.8-0.5-2.3-1.3c-0.1-0.2-0.2-0.4-0.2-0.5c0.2-0.6,0.6-1.2,1.2-1.5l7.3-4.2v-1.5l-7.3-4.2c-0.6-0.3-1-0.9-1.2-1.5
				c0.1-0.2,0.1-0.4,0.2-0.5c0.7-1.3,2.3-1.7,3.6-1l10,5.8l10-5.8c1.3-0.7,2.9-0.3,3.6,1c0.1,0.2,0.2,0.4,0.2,0.5
				c-0.2,0.6-0.6,1.2-1.2,1.5l-7.3,4.2v1.5l7.3,4.2c0.6,0.3,1,0.9,1.2,1.5c-0.1,0.2-0.1,0.4-0.2,0.5C37.1,50.3,36.2,50.8,35.3,50.8"
				/>
			<path id="Fill-17" class="st5" d="M21.8,36.7c0,0.3,0.3,0.6,0.8,0.8c0.4,0.2,0.8,0.2,1.3,0.2c0.7,0,1.4-0.2,1.8-0.5
				c0.2-0.1,0.4-0.4,0.4-0.6l0,5.3c0,0.3-0.2,0.5-0.4,0.6c-0.4,0.3-1.1,0.5-1.8,0.5c-0.5,0-0.9-0.1-1.3-0.2
				c-0.5-0.2-0.8-0.5-0.8-0.7c0-0.1,0-0.1,0-0.2C21.8,42,21.8,36.6,21.8,36.7"/>
			<path id="Fill-19" class="st7" d="M22.6,37.5c0.4,0.2,0.8,0.2,1.3,0.2c0.7,0,1.4-0.2,1.8-0.5c0.2-0.1,0.4-0.4,0.4-0.6
				c0-0.3-0.3-0.6-0.8-0.7c-0.4-0.2-0.8-0.2-1.3-0.2c-0.7,0-1.4,0.2-1.8,0.5c-0.2,0.1-0.4,0.4-0.4,0.6C21.9,37,22.2,37.3,22.6,37.5"
				/>
			<path id="Fill-21" class="st5" d="M25.3,36.4c0,0.2-0.1,0.3-0.2,0.4c-0.3,0.2-0.7,0.3-1.1,0.3c-0.3,0-0.6,0-0.8-0.1
				c-0.3-0.1-0.5-0.3-0.5-0.4c0,0,0-13,0-13h2.6V36.4z"/>
			<path id="Fill-23" class="st8" d="M3.8,21l0-1.8l0.8,0c0.2-0.2,0.4-0.4,0.7-0.6l13-7.5c1.9-1.1,4.3-1.1,6.3,0l18,10.3
				c0.4,0.3,0.8,0.6,1,1l0.5-0.1l0,1.9c0,1.1-0.5,2.1-1.6,2.7l-13,7.5c-1.9,1.1-4.3,1.1-6.3,0L5.4,24C4.2,23.3,3.7,22.1,3.8,21"/>
			<g transform="translate(3.378505, 8.031719)">
				<defs>
					<filter id="Adobe_OpacityMaskFilter_2_" filterUnits="userSpaceOnUse" x="0.4" y="0.2" width="40.3" height="24.9">
						<feColorMatrix  type="matrix" values="1 0 0 0 0  0 1 0 0 0  0 0 1 0 0  0 0 0 1 0"/>
					</filter>
				</defs>
				<mask maskUnits="userSpaceOnUse" x="0.4" y="0.2" width="40.3" height="24.9" id="mask-6_1_">
					<g class="st9">
						<polygon id="path-5_1_" class="st1" points="0.4,0.2 40.8,0.2 40.8,25.1 0.4,25.1 						"/>
					</g>
				</mask>
				<path id="Fill-25" class="st10" d="M2,8.5L15,1c1.9-1.1,4.3-1.1,6.3,0l18,10.3c2.1,1.2,2.1,4.2,0,5.4l-13,7.5
					c-1.9,1.1-4.3,1.1-6.3,0L2,13.9C-0.1,12.7-0.1,9.7,2,8.5"/>
			</g>
			<path id="Fill-27" class="st8" d="M15.7,30.9c0,0.2-0.1,0.3-0.2,0.4c-0.3,0.2-0.7,0.3-1.1,0.3c-0.3,0-0.6,0-0.8-0.1
				c-0.3-0.1-0.5-0.3-0.5-0.4c0,0,0-13,0-13h2.6V30.9z"/>
			<g transform="translate(0.675701, 0.599009)">
				<defs>
					<filter id="Adobe_OpacityMaskFilter_3_" filterUnits="userSpaceOnUse" x="0.2" y="0.1" width="27" height="30.2">
						<feColorMatrix  type="matrix" values="1 0 0 0 0  0 1 0 0 0  0 0 1 0 0  0 0 0 1 0"/>
					</filter>
				</defs>
				<mask maskUnits="userSpaceOnUse" x="0.2" y="0.1" width="27" height="30.2" id="mask-8_1_">
					<g class="st11">
						<polygon id="path-7_1_" class="st1" points="0.2,0.1 27.2,0.1 27.2,30.3 0.2,30.3 						"/>
					</g>
				</mask>
				<path id="Fill-29" class="st12" d="M0.2,1.1l1.5-0.8C2.4,0,3,0,3.6,0.3l17.7,9.4c1.4,0.8,2.6,2.6,3.1,4.8l2.8,12.3
					c0.2,1-0.2,2.1-1.2,2.6l-1.6,0.8l0.1-1.6c-0.1,0-0.1,0-0.2-0.1L6,18.5c-1.4-0.8-2.6-2.6-3.1-4.8L0.4,3c-0.1-0.4-0.1-0.7-0.1-1
					L0.2,1.1z"/>
			</g>
			<g transform="translate(0.000000, 1.274710)">
				<defs>
					<filter id="Adobe_OpacityMaskFilter_4_" filterUnits="userSpaceOnUse" x="0" y="0.2" width="26.4" height="29.4">
						<feColorMatrix  type="matrix" values="1 0 0 0 0  0 1 0 0 0  0 0 1 0 0  0 0 0 1 0"/>
					</filter>
				</defs>
				<mask maskUnits="userSpaceOnUse" x="0" y="0.2" width="26.4" height="29.4" id="mask-10_1_">
					<g class="st13">
						<polygon id="path-9_1_" class="st1" points="0,0.2 26.4,0.2 26.4,29.7 0,29.7 						"/>
					</g>
				</mask>
				<path id="Fill-31" class="st14" d="M0.1,3.8l2.4,10.8c0.5,2.2,1.7,4,3.1,4.8L24,29.5c1.5,0.8,2.8-1,2.2-3.4l-2.4-10.8
					c-0.5-2.2-1.7-4-3.1-4.8L2.4,0.4C0.8-0.4-0.4,1.5,0.1,3.8"/>
			</g>
		</g>
	</g>
</g>
</svg>
