<?xml version="1.0" encoding="utf-8"?>
<!-- Generator: Adobe Illustrator 24.1.0, SVG Export Plug-In . SVG Version: 6.00 Build 0)  -->
<svg version="1.1" id="图层_1" xmlns="http://www.w3.org/2000/svg" xmlns:xlink="http://www.w3.org/1999/xlink" x="0px" y="0px"
	 viewBox="0 0 46 55" style="enable-background:new 0 0 46 55;" xml:space="preserve">
<style type="text/css">
	.st0{filter:url(#Adobe_OpacityMaskFilter);}
	.st1{fill-rule:evenodd;clip-rule:evenodd;fill:#FFFFFF;}
	.st2{mask:url(#mask-2_1_);fill-rule:evenodd;clip-rule:evenodd;fill:#021F66;}
	.st3{filter:url(#Adobe_OpacityMaskFilter_1_);}
	.st4{mask:url(#mask-4_1_);fill-rule:evenodd;clip-rule:evenodd;fill:#021F66;}
	.st5{fill-rule:evenodd;clip-rule:evenodd;fill:#021F66;}
	.st6{fill-rule:evenodd;clip-rule:evenodd;fill:#2A53D3;}
	.st7{fill-rule:evenodd;clip-rule:evenodd;fill:#343B65;}
	.st8{fill-rule:evenodd;clip-rule:evenodd;fill:#1531AA;}
	.st9{fill-rule:evenodd;clip-rule:evenodd;fill:#2B5FE0;}
	.st10{filter:url(#Adobe_OpacityMaskFilter_2_);}
	.st11{mask:url(#mask-6_1_);fill-rule:evenodd;clip-rule:evenodd;fill:#2A53D3;}
	.st12{filter:url(#Adobe_OpacityMaskFilter_3_);}
	.st13{mask:url(#mask-8_1_);fill-rule:evenodd;clip-rule:evenodd;fill:#1531AA;}
</style>
<g id="页面-1">
	<g id="画板备份" transform="translate(-805.000000, -627.000000)">
		<g id="编组" transform="translate(805.400950, 627.014964)">
			<g transform="translate(6.757010, 50.600879)">
				<defs>
					<filter id="Adobe_OpacityMaskFilter" filterUnits="userSpaceOnUse" x="0.5" y="0.2" width="2.5" height="2.5">
						<feColorMatrix  type="matrix" values="1 0 0 0 0  0 1 0 0 0  0 0 1 0 0  0 0 0 1 0"/>
					</filter>
				</defs>
				<mask maskUnits="userSpaceOnUse" x="0.5" y="0.2" width="2.5" height="2.5" id="mask-2_1_">
					<g class="st0">
						<polygon id="path-1_1_" class="st1" points="0.5,0.2 3.1,0.2 3.1,2.7 0.5,2.7 						"/>
					</g>
				</mask>
				<path id="Fill-1" class="st2" d="M3.1,1.4c0,0.7-0.6,1.3-1.3,1.3S0.5,2.1,0.5,1.4c0-0.7,0.6-1.3,1.3-1.3S3.1,0.7,3.1,1.4"/>
			</g>
			<g transform="translate(30.406543, 50.600879)">
				<defs>
					<filter id="Adobe_OpacityMaskFilter_1_" filterUnits="userSpaceOnUse" x="0.1" y="0.2" width="2.5" height="2.5">
						<feColorMatrix  type="matrix" values="1 0 0 0 0  0 1 0 0 0  0 0 1 0 0  0 0 0 1 0"/>
					</filter>
				</defs>
				<mask maskUnits="userSpaceOnUse" x="0.1" y="0.2" width="2.5" height="2.5" id="mask-4_1_">
					<g class="st3">
						<polygon id="path-3_1_" class="st1" points="0.1,0.2 2.6,0.2 2.6,2.7 0.1,2.7 						"/>
					</g>
				</mask>
				<path id="Fill-3" class="st4" d="M2.6,1.4c0,0.7-0.6,1.3-1.3,1.3c-0.7,0-1.3-0.6-1.3-1.3c0-0.7,0.6-1.3,1.3-1.3
					C2.1,0.2,2.6,0.7,2.6,1.4"/>
			</g>
			<path id="Fill-5" class="st5" d="M9.8,38.7c0,0.7-0.6,1.3-1.3,1.3c-0.7,0-1.3-0.6-1.3-1.3s0.6-1.3,1.3-1.3
				C9.3,37.5,9.8,38,9.8,38.7"/>
			<path id="Fill-7" class="st5" d="M33,38.7c0,0.7-0.6,1.3-1.3,1.3c-0.7,0-1.3-0.6-1.3-1.3s0.6-1.3,1.3-1.3
				C32.5,37.5,33,38,33,38.7"/>
			<path id="Fill-9" class="st5" d="M32.8,37.4l-7.3,4.2v1.5l7.3-4.2c1.1-0.6,1.6-1.9,1.2-3.1C33.8,36.5,33.4,37,32.8,37.4"/>
			<path id="Fill-11" class="st5" d="M7.6,37.4c-0.6-0.3-1-0.9-1.2-1.5C6,37,6.5,38.3,7.6,38.9l7.3,4.2v-1.5L7.6,37.4z"/>
			<path id="Fill-13" class="st5" d="M33.7,49.5c-0.5,0.8-1.4,1.3-2.3,1.3c-0.4,0-0.9-0.1-1.3-0.4l-10-5.8l-10,5.8
				c-0.4,0.2-0.9,0.4-1.3,0.4c-0.9,0-1.8-0.5-2.3-1.3c-0.1-0.2-0.2-0.4-0.2-0.5c-0.2,0.7-0.1,1.4,0.2,2.1c0.5,0.8,1.4,1.3,2.3,1.3
				c0.4,0,0.9-0.1,1.3-0.4l10-5.8l10,5.8c0.4,0.2,0.9,0.4,1.3,0.4c0.9,0,1.8-0.5,2.3-1.3c0.4-0.7,0.4-1.4,0.2-2.1
				C33.9,49.1,33.8,49.3,33.7,49.5"/>
			<path id="Fill-15" class="st6" d="M8.9,50.8c0.4,0,0.9-0.1,1.3-0.4l10-5.8l10,5.8c0.4,0.2,0.9,0.4,1.3,0.4c0.9,0,1.8-0.5,2.3-1.3
				c0.1-0.2,0.2-0.4,0.2-0.5c-0.2-0.6-0.6-1.2-1.2-1.5l-7.3-4.2v-1.5l7.3-4.2c0.6-0.3,1-0.9,1.2-1.5c-0.1-0.2-0.1-0.4-0.2-0.5
				c-0.7-1.3-2.3-1.7-3.6-1l-10,5.8l-10-5.8c-1.3-0.7-2.9-0.3-3.6,1c-0.1,0.2-0.2,0.4-0.2,0.5C6.5,36.5,7,37,7.6,37.4l7.3,4.2v1.5
				l-7.3,4.2c-0.6,0.3-1,0.9-1.2,1.5c0.1,0.2,0.1,0.4,0.2,0.5C7.1,50.3,8,50.8,8.9,50.8"/>
			<path id="Fill-17" class="st5" d="M22.3,36.7c0,0.3-0.3,0.6-0.8,0.8c-0.4,0.2-0.8,0.2-1.3,0.2c-0.7,0-1.4-0.2-1.8-0.5
				c-0.2-0.1-0.4-0.4-0.4-0.6l0,5.3c0,0.3,0.2,0.5,0.4,0.6c0.4,0.3,1.1,0.5,1.8,0.5c0.5,0,0.9-0.1,1.3-0.2c0.5-0.2,0.8-0.5,0.8-0.7
				c0-0.1,0-0.1,0-0.2C22.3,42,22.3,36.6,22.3,36.7"/>
			<path id="Fill-19" class="st7" d="M21.5,37.5c-0.4,0.2-0.8,0.2-1.3,0.2c-0.7,0-1.4-0.2-1.8-0.5c-0.2-0.1-0.4-0.4-0.4-0.6
				c0-0.3,0.3-0.6,0.8-0.7c0.4-0.2,0.8-0.2,1.3-0.2c0.7,0,1.4,0.2,1.8,0.5c0.2,0.1,0.4,0.4,0.4,0.6C22.3,37,22,37.3,21.5,37.5"/>
			<path id="Fill-21" class="st5" d="M18.9,36.4c0,0.2,0.1,0.3,0.2,0.4c0.3,0.2,0.7,0.3,1.1,0.3c0.3,0,0.6,0,0.8-0.1
				c0.3-0.1,0.5-0.3,0.5-0.4c0,0,0-13,0-13h-2.6V36.4z"/>
			<path id="Fill-23" class="st8" d="M40.3,21l0-1.8l-0.8,0c-0.2-0.2-0.4-0.4-0.7-0.6l-13-7.5c-1.9-1.1-4.3-1.1-6.3,0l-18,10.3
				c-0.4,0.3-0.8,0.6-1,1L0,22.2l0,1.9c0,1.1,0.5,2.1,1.6,2.7l13,7.5c1.9,1.1,4.3,1.1,6.3,0l18-10.3C39.9,23.3,40.4,22.1,40.3,21"/>
			<path id="Fill-25" class="st9" d="M38.8,16.5L25.8,9c-1.9-1.1-4.3-1.1-6.3,0l-18,10.3c-2.1,1.2-2.1,4.2,0,5.4l13,7.5
				c1.9,1.1,4.3,1.1,6.3,0l18-10.3C40.8,20.7,40.9,17.7,38.8,16.5"/>
			<path id="Fill-27" class="st8" d="M28.4,30.9c0,0.2,0.1,0.3,0.2,0.4c0.3,0.2,0.7,0.3,1.1,0.3c0.3,0,0.6,0,0.8-0.1
				c0.3-0.1,0.5-0.3,0.5-0.4c0,0,0-13,0-13h-2.6V30.9z"/>
			<g transform="translate(16.216823, 0.599009)">
				<defs>
					<filter id="Adobe_OpacityMaskFilter_2_" filterUnits="userSpaceOnUse" x="0" y="0.1" width="27" height="30.2">
						<feColorMatrix  type="matrix" values="1 0 0 0 0  0 1 0 0 0  0 0 1 0 0  0 0 0 1 0"/>
					</filter>
				</defs>
				<mask maskUnits="userSpaceOnUse" x="0" y="0.1" width="27" height="30.2" id="mask-6_1_">
					<g class="st10">
						<polygon id="path-5_1_" class="st1" points="0,0.1 27,0.1 27,30.3 0,30.3 						"/>
					</g>
				</mask>
				<path id="Fill-29" class="st11" d="M27,1.1l-1.5-0.8c-0.6-0.3-1.3-0.3-1.8,0L5.9,9.7c-1.4,0.8-2.6,2.6-3.1,4.8L0.1,26.8
					c-0.2,1,0.2,2.1,1.2,2.6l1.6,0.8l-0.1-1.6c0.1,0,0.1,0,0.2-0.1l18.4-10.1c1.4-0.8,2.6-2.6,3.1-4.8L26.8,3c0.1-0.4,0.1-0.7,0.1-1
					L27,1.1z"/>
			</g>
			<g transform="translate(17.568225, 1.274710)">
				<defs>
					<filter id="Adobe_OpacityMaskFilter_3_" filterUnits="userSpaceOnUse" x="0.2" y="0.2" width="26.4" height="29.4">
						<feColorMatrix  type="matrix" values="1 0 0 0 0  0 1 0 0 0  0 0 1 0 0  0 0 0 1 0"/>
					</filter>
				</defs>
				<mask maskUnits="userSpaceOnUse" x="0.2" y="0.2" width="26.4" height="29.4" id="mask-8_1_">
					<g class="st12">
						<polygon id="path-7_1_" class="st1" points="0.2,0.2 26.6,0.2 26.6,29.7 0.2,29.7 						"/>
					</g>
				</mask>
				<path id="Fill-31" class="st13" d="M26.5,3.8L24,14.6c-0.5,2.2-1.7,4-3.1,4.8L2.5,29.5c-1.5,0.8-2.8-1-2.2-3.4l2.4-10.8
					c0.5-2.2,1.7-4,3.1-4.8L24.2,0.4C25.7-0.4,27,1.5,26.5,3.8"/>
			</g>
		</g>
	</g>
</g>
</svg>
